<svg width="540" height="334" viewBox="0 0 540 334" fill="none" xmlns="http://www.w3.org/2000/svg">
<g clip-path="url(#clip0_724_3920)">
<path d="M468.777 296.349C468.777 296.349 464.879 279.537 467.832 264.737C470.785 249.938 477.635 259.765 485.548 249.938C493.462 240.111 489.446 221.285 498.304 213.353C507.163 205.42 519.919 206.486 522.871 191.686C525.824 176.886 527.832 165.046 533.737 167.059C539.643 169.072 528.777 186.832 528.777 197.606C528.777 208.498 534.682 215.365 530.785 226.258C526.887 237.151 510.115 233.125 510.115 246.03C510.115 258.817 516.966 271.723 511.06 280.603C505.155 289.482 489.446 291.495 487.438 296.349C485.43 301.322 480.588 310.202 475.627 310.202C470.785 310.202 468.777 296.349 468.777 296.349Z" fill="#BFBFBF"/>
<path d="M465.589 296.586C466.534 293.626 464.644 267.934 455.786 262.961C446.928 257.989 437.125 260.001 432.164 251.122C427.203 242.242 427.203 238.335 422.361 237.269C417.4 236.322 393.778 232.296 396.731 237.269C399.684 242.242 417.4 234.309 417.4 244.136C417.4 253.963 415.392 269.828 421.298 273.736C427.203 277.643 442.912 276.695 441.967 285.575C441.022 294.455 438.07 297.415 442.912 300.375C447.873 303.335 461.574 316.122 463.581 306.295C465.589 296.586 465.589 296.586 465.589 296.586Z" fill="#BFBFBF"/>
<path d="M476.573 318.253C476.573 318.253 471.966 303.927 484.604 277.406C497.242 250.885 506.455 230.876 512.124 220.457" stroke="#263238" stroke-width="1.232" stroke-miterlimit="10"/>
<path d="M466.178 320.621C466.178 320.621 464.407 313.754 458.737 294.692C452.95 275.748 446.099 270.539 436.414 264.264C426.611 257.989 426.139 247.57 424.367 244.728" stroke="#263238" stroke-width="1.232" stroke-miterlimit="10"/>
<path d="M490.273 310.202C490.273 310.202 491.455 299.901 500.549 296.942C509.762 294.1 518.384 295.166 520.037 288.89C521.809 282.615 521.809 276.222 525.825 272.788C529.84 269.355 535.037 267.579 535.628 269.355C536.218 271.131 529.84 272.196 529.84 277.998C529.84 283.799 538.462 298.125 525.825 303.927C513.187 309.728 502.911 304.519 498.305 308.544C493.699 312.57 490.864 315.412 490.864 315.412L490.273 310.202Z" fill="#BFBFBF"/>
<path d="M489.211 320.621C489.211 320.621 493.227 305.703 503.03 302.269C512.833 298.836 523.699 306.295 528.305 299.428C532.912 292.561 529.487 285.575 528.896 281.076" stroke="#263238" stroke-width="1.232" stroke-miterlimit="10"/>
<path d="M495.589 318.253H460.038C458.502 318.253 457.203 319.555 457.203 321.095C457.203 322.634 458.502 323.936 460.038 323.936H460.274L462.991 331.158C463.463 332.342 464.526 333.053 465.825 333.053H489.683C490.865 333.053 492.046 332.342 492.518 331.158L495.235 323.936H495.471C497.006 323.936 498.305 322.634 498.305 321.095C498.542 319.555 497.242 318.253 495.589 318.253Z" fill="#263238"/>
<path d="M370.512 155.93C369.33 154.627 368.622 152.851 368.622 150.484V143.616H344.764C342.756 143.616 341.102 143.024 339.921 141.959C338.74 140.893 338.031 139.473 338.031 137.697C338.031 136.513 338.386 135.21 338.976 133.908L360.354 96.6125C362.953 92.2318 366.732 89.9823 371.811 89.9823C375.236 89.9823 377.952 90.8111 379.724 92.4686C381.496 94.1262 382.441 96.9677 382.441 100.875V133.197H387.401C389.055 133.197 390.472 133.671 391.417 134.5C392.362 135.447 392.953 136.631 392.953 138.407C392.953 140.065 392.48 141.248 391.535 142.196C390.59 143.143 389.173 143.616 387.401 143.616H382.441V150.365C382.441 152.733 381.85 154.627 380.669 155.93C379.488 157.232 377.716 157.943 375.472 157.943C373.346 157.943 371.693 157.232 370.512 155.93ZM368.622 133.197V102.059L351.614 133.197H368.622Z" fill="#263238"/>
<path d="M490.512 155.93C489.33 154.627 488.622 152.851 488.622 150.484V143.616H464.764C462.756 143.616 461.102 143.024 459.921 141.959C458.74 140.893 458.031 139.473 458.031 137.697C458.031 136.513 458.386 135.21 458.976 133.908L480.354 96.6125C482.953 92.2318 486.732 89.9823 491.811 89.9823C495.236 89.9823 497.953 90.8111 499.724 92.4686C501.496 94.1262 502.441 96.9677 502.441 100.875V133.197H507.401C509.055 133.197 510.472 133.671 511.417 134.5C512.362 135.447 512.953 136.631 512.953 138.407C512.953 140.065 512.48 141.248 511.535 142.196C510.59 143.143 509.173 143.616 507.401 143.616H502.441V150.365C502.441 152.733 501.85 154.627 500.669 155.93C499.488 157.232 497.716 157.943 495.472 157.943C493.464 157.943 491.811 157.232 490.512 155.93ZM488.74 133.197V102.059L471.732 133.197H488.74Z" fill="#263238"/>
<path d="M413.624 157.114C410.671 155.811 408.191 154.154 406.183 152.023C404.293 149.892 402.639 147.287 401.34 144.327C400.041 141.248 399.214 138.052 398.624 134.737C398.151 131.421 397.797 127.751 397.797 123.844C397.797 120.055 398.033 116.385 398.624 113.07C399.096 109.755 400.041 106.558 401.34 103.598C402.639 100.52 404.175 98.0333 406.183 95.9022C408.072 93.771 410.553 92.1134 413.624 90.8111C416.695 89.5087 420.12 88.9167 423.899 88.9167C427.679 88.9167 430.986 89.5087 434.057 90.8111C437.009 91.995 439.49 93.771 441.38 95.7838C443.269 97.9149 444.923 100.401 446.222 103.48C447.521 106.44 448.466 109.636 448.939 112.951C449.529 116.267 449.765 119.937 449.765 123.844C449.765 127.751 449.529 131.303 448.939 134.737C448.466 138.052 447.521 141.248 446.222 144.327C444.923 147.405 443.387 149.892 441.38 152.023C439.49 154.154 437.009 155.811 433.939 157.114C430.986 158.416 427.561 159.008 423.781 159.008C420.12 159.008 416.695 158.416 413.624 157.114ZM429.687 146.221C431.222 145.037 432.403 143.143 433.112 140.775C433.821 138.407 434.411 135.921 434.647 133.197C435.002 130.593 435.12 127.396 435.12 123.726C435.12 120.884 435.002 118.279 434.884 116.148C434.765 114.017 434.411 111.767 433.939 109.636C433.466 107.505 432.758 105.729 432.049 104.308C431.222 102.888 430.159 101.822 428.742 100.993C427.324 100.164 425.789 99.6909 423.781 99.6909C422.246 99.6909 420.828 99.9277 419.529 100.52C418.348 101.112 417.285 101.94 416.458 103.006C415.632 104.072 414.923 105.374 414.45 106.795C413.86 108.216 413.506 109.873 413.151 111.767C412.797 113.662 412.679 115.556 412.561 117.451C412.443 119.345 412.443 121.476 412.443 123.844C412.443 126.212 412.443 128.343 412.561 130.238C412.679 132.132 412.915 134.026 413.151 135.921C413.506 137.815 413.86 139.473 414.45 140.893C415.041 142.314 415.632 143.498 416.458 144.682C417.285 145.748 418.23 146.576 419.529 147.168C420.71 147.76 422.128 147.997 423.781 147.997C426.143 148.116 428.151 147.524 429.687 146.221Z" fill="#263238"/>
<path d="M389.175 72.1042C388.938 71.8674 388.82 71.5122 388.82 71.2754V50.4374C388.82 50.0822 388.938 49.8454 389.175 49.6086C389.411 49.3718 389.647 49.2534 390.001 49.2534H402.285C402.639 49.2534 402.875 49.3718 403.112 49.6086C403.348 49.8454 403.348 50.0822 403.348 50.319C403.348 50.6742 403.23 50.911 403.112 51.0294C402.875 51.2662 402.639 51.2662 402.285 51.2662H391.537V59.4357H401.812C402.167 59.4357 402.521 59.5541 402.639 59.6725C402.875 59.9092 402.875 60.146 402.875 60.3828C402.875 60.6196 402.757 60.9748 402.521 61.0932C402.285 61.33 402.049 61.33 401.694 61.33H391.419V70.2098H402.757C403.112 70.2098 403.348 70.3282 403.584 70.4466C403.82 70.6834 403.82 70.9202 403.82 71.157C403.82 71.5122 403.702 71.749 403.584 71.8674C403.348 72.1042 403.112 72.2226 402.757 72.2226H390.119C389.765 72.5778 389.529 72.341 389.175 72.1042Z" fill="#263238"/>
<path d="M409.018 72.2226C408.782 71.9858 408.664 71.749 408.664 71.3938V57.4229C408.664 57.0677 408.782 56.8309 409.018 56.5941C409.255 56.3573 409.491 56.3573 409.845 56.3573C410.199 56.3573 410.436 56.4757 410.672 56.5941C410.908 56.8309 411.026 57.0677 411.026 57.4229V59.3173C411.262 58.2517 411.853 57.4229 412.68 56.8309C413.507 56.1205 414.57 55.7653 415.751 55.7653C415.987 55.7653 416.223 55.8837 416.459 56.1205C416.577 56.3573 416.696 56.5941 416.696 56.8309C416.696 57.0677 416.577 57.3045 416.459 57.5413C416.341 57.7781 415.987 57.7781 415.751 57.7781C414.924 57.7781 414.215 57.8965 413.625 58.2517C413.034 58.4885 412.562 58.8437 412.207 59.3173C411.853 59.7909 411.617 60.2644 411.499 60.738C411.381 61.2116 411.263 61.6852 411.263 62.1588V71.2754C411.263 71.6306 411.144 71.8674 410.908 72.1042C410.672 72.341 410.318 72.341 410.081 72.341C409.491 72.5778 409.255 72.4594 409.018 72.2226Z" fill="#263238"/>
<path d="M420.475 72.2226C420.239 71.9858 420.121 71.749 420.121 71.3938V57.4229C420.121 57.0677 420.239 56.8309 420.475 56.5941C420.712 56.3573 420.948 56.3573 421.302 56.3573C421.657 56.3573 421.893 56.4757 422.129 56.5941C422.365 56.8309 422.483 57.0677 422.483 57.4229V59.3173C422.72 58.2517 423.31 57.4229 424.137 56.8309C424.964 56.1205 426.027 55.7653 427.208 55.7653C427.444 55.7653 427.68 55.8837 427.916 56.1205C428.034 56.3573 428.153 56.5941 428.153 56.8309C428.153 57.0677 428.034 57.3045 427.916 57.5413C427.798 57.7781 427.444 57.7781 427.208 57.7781C426.381 57.7781 425.672 57.8965 425.082 58.2517C424.491 58.4885 424.019 58.8437 423.664 59.3173C423.31 59.7909 423.074 60.2644 422.956 60.738C422.838 61.2116 422.719 61.6852 422.719 62.1588V71.2754C422.719 71.6306 422.601 71.8674 422.365 72.1042C422.129 72.341 421.775 72.341 421.538 72.341C421.066 72.5778 420.712 72.4594 420.475 72.2226Z" fill="#263238"/>
<path d="M432.639 70.565C431.103 69.0259 430.395 67.0131 430.395 64.4084C430.395 61.8036 431.103 59.7909 432.639 58.2517C434.174 56.7125 436.064 56.0021 438.426 56.0021C440.788 56.0021 442.678 56.7125 444.213 58.2517C445.749 59.7909 446.458 61.8036 446.458 64.4084C446.458 67.0131 445.749 69.0259 444.213 70.565C442.678 72.1042 440.788 72.8146 438.426 72.8146C436.064 72.8146 434.174 72.1042 432.639 70.565ZM442.56 59.4357C441.615 58.1333 440.198 57.5413 438.426 57.5413C436.654 57.5413 435.355 58.1333 434.292 59.4357C433.347 60.6196 432.757 62.2772 432.757 64.4084C432.757 66.4211 433.229 68.0787 434.292 69.3811C435.237 70.6834 436.654 71.2754 438.426 71.2754C440.198 71.2754 441.615 70.6834 442.56 69.3811C443.505 68.1971 444.095 66.5395 444.095 64.4084C444.095 62.3956 443.505 60.738 442.56 59.4357Z" fill="#263238"/>
<path d="M450.593 72.2226C450.356 71.9858 450.238 71.749 450.238 71.3938V57.4229C450.238 57.0677 450.356 56.8309 450.593 56.5941C450.829 56.3573 451.065 56.3573 451.419 56.3573C451.774 56.3573 452.01 56.4757 452.246 56.5941C452.482 56.8309 452.6 57.0677 452.6 57.4229V59.3173C452.837 58.2517 453.427 57.4229 454.254 56.8309C455.081 56.1205 456.144 55.7653 457.325 55.7653C457.561 55.7653 457.797 55.8837 458.034 56.1205C458.152 56.3573 458.27 56.5941 458.27 56.8309C458.27 57.0677 458.152 57.3045 458.034 57.5413C457.915 57.7781 457.561 57.7781 457.325 57.7781C456.498 57.7781 455.789 57.8965 455.199 58.2517C454.608 58.4885 454.136 58.8437 453.782 59.3173C453.427 59.7909 453.191 60.2644 453.073 60.738C452.955 61.2116 452.837 61.6852 452.837 62.1588V71.2754C452.837 71.6306 452.719 71.8674 452.482 72.1042C452.246 72.341 451.892 72.341 451.656 72.341C451.065 72.5778 450.829 72.4594 450.593 72.2226Z" fill="#263238"/>
<path d="M113.74 76.2481C134.548 76.2481 151.417 59.3384 151.417 38.4793C151.417 17.6201 134.548 0.710388 113.74 0.710388C92.9311 0.710388 76.0625 17.6201 76.0625 38.4793C76.0625 59.3384 92.9311 76.2481 113.74 76.2481Z" stroke="#263238" stroke-width="1.232" stroke-miterlimit="10" stroke-linecap="round" stroke-linejoin="round"/>
<path d="M118.593 69.3612C135.603 66.6734 147.22 50.671 144.538 33.6188C141.857 16.5667 125.893 4.92205 108.883 7.60986C91.872 10.2977 80.2556 26.3001 82.9369 43.3522C85.6182 60.4044 101.582 72.049 118.593 69.3612Z" stroke="#263238" stroke-width="1.232" stroke-miterlimit="10" stroke-linecap="round" stroke-linejoin="round"/>
<path d="M93.8984 38.4793H113.741V67.3683" stroke="#263238" stroke-width="1.232" stroke-miterlimit="10" stroke-linecap="round" stroke-linejoin="round"/>
<path d="M287.48 326.896C287.48 323.344 290.315 320.503 293.858 320.503C297.402 320.503 300.236 323.344 300.236 326.896C300.236 330.448 297.402 333.29 293.858 333.29C290.315 333.29 287.48 330.448 287.48 326.896Z" fill="#263238" stroke="#263238" stroke-width="1.232" stroke-miterlimit="10" stroke-linecap="round" stroke-linejoin="round"/>
<path d="M290.551 326.896C290.551 325.12 291.968 323.699 293.74 323.699C295.511 323.699 296.929 325.12 296.929 326.896C296.929 328.672 295.511 330.093 293.74 330.093C291.968 330.093 290.551 328.672 290.551 326.896Z" fill="white" stroke="#263238" stroke-width="1.232" stroke-miterlimit="10" stroke-linecap="round" stroke-linejoin="round"/>
<path d="M219.801 326.896C219.801 323.344 222.635 320.503 226.179 320.503C229.722 320.503 232.557 323.344 232.557 326.896C232.557 330.448 229.722 333.29 226.179 333.29C222.635 333.29 219.801 330.448 219.801 326.896Z" fill="#263238" stroke="#263238" stroke-width="1.232" stroke-miterlimit="10" stroke-linecap="round" stroke-linejoin="round"/>
<path d="M222.871 326.896C222.871 325.12 224.288 323.699 226.06 323.699C227.832 323.699 229.249 325.12 229.249 326.896C229.249 328.672 227.832 330.093 226.06 330.093C224.288 330.093 222.871 328.672 222.871 326.896Z" fill="white" stroke="#263238" stroke-width="1.232" stroke-miterlimit="10" stroke-linecap="round" stroke-linejoin="round"/>
<path d="M197.598 326.896C197.598 323.344 200.432 320.503 203.976 320.503C207.519 320.503 210.354 323.344 210.354 326.896C210.354 330.448 207.519 333.29 203.976 333.29C200.432 333.29 197.598 330.448 197.598 326.896Z" fill="#263238" stroke="#263238" stroke-width="1.232" stroke-miterlimit="10" stroke-linecap="round" stroke-linejoin="round"/>
<path d="M200.785 326.896C200.785 325.12 202.202 323.699 203.974 323.699C205.746 323.699 207.163 325.12 207.163 326.896C207.163 328.672 205.746 330.093 203.974 330.093C202.202 330.093 200.785 328.672 200.785 326.896Z" fill="white" stroke="#263238" stroke-width="1.232" stroke-miterlimit="10" stroke-linecap="round" stroke-linejoin="round"/>
<path d="M235.863 319.674H249.21V251.122H235.981V319.674H235.863Z" fill="#263238" stroke="#263238" stroke-width="1.232" stroke-miterlimit="10" stroke-linecap="round" stroke-linejoin="round"/>
<path d="M232.348 319.644H252.781V271.219H232.348V319.644Z" fill="#263238" stroke="#263238" stroke-width="1.232" stroke-miterlimit="10" stroke-linecap="round" stroke-linejoin="round"/>
<path d="M256.298 239.637H273.424V202.815H256.18L256.298 239.637C256.18 239.637 256.18 239.519 256.298 239.637Z" fill="#263238"/>
<path d="M256.298 239.637H273.424V202.815H256.18L256.298 239.637ZM256.298 239.637C256.18 239.519 256.18 239.637 256.298 239.637Z" stroke="#263238" stroke-width="1.232" stroke-miterlimit="10" stroke-linecap="round" stroke-linejoin="round"/>
<path d="M230.905 202.697H297.873C304.488 202.697 309.803 197.251 309.566 190.62L307.913 125.146C307.795 118.753 302.598 113.662 296.22 113.662H240.944C235.157 113.662 230.196 117.924 229.369 123.607L219.33 189.081C218.267 196.303 223.818 202.697 230.905 202.697Z" fill="#00FBF6" stroke="#263238" stroke-width="1.232" stroke-miterlimit="10" stroke-linecap="round" stroke-linejoin="round"/>
<path d="M252.871 253.49L282.162 272.907" stroke="#263238" stroke-width="1.232" stroke-miterlimit="10" stroke-linecap="round" stroke-linejoin="round"/>
<path d="M283.226 269.947L288.187 273.38C289.959 274.564 290.077 277.051 288.659 278.471L288.305 278.827C287.124 280.011 285.234 280.129 283.935 279.063L279.329 275.275C277.911 274.091 277.793 271.841 279.092 270.539C280.274 269.236 282.045 269 283.226 269.947Z" fill="#263238" stroke="#263238" stroke-width="1.232" stroke-miterlimit="10" stroke-linecap="round" stroke-linejoin="round"/>
<path d="M188.149 256.805H297.046C302.834 256.805 307.558 252.069 307.558 246.267C307.558 240.466 302.834 235.73 297.046 235.73H188.149C182.361 235.73 177.637 240.466 177.637 246.267C177.637 252.069 182.361 256.805 188.149 256.805Z" fill="#00FBF6" stroke="#263238" stroke-width="1.232" stroke-miterlimit="10" stroke-linecap="round" stroke-linejoin="round"/>
<path d="M177.754 244.965C178.345 239.637 183.187 235.73 188.62 235.73H245.077C250.51 235.73 255.353 239.637 255.943 244.965C256.652 251.358 251.691 256.805 245.55 256.805H188.266C181.888 256.805 176.928 251.358 177.754 244.965Z" fill="#00FBF6" stroke="#263238" stroke-width="1.232" stroke-miterlimit="10" stroke-linecap="round" stroke-linejoin="round"/>
<path d="M195.59 323.463H300.117C300.117 320.266 297.519 317.779 294.448 317.779H201.377C198.188 317.779 195.59 320.384 195.59 323.463Z" fill="#263238" stroke="#263238" stroke-width="1.232" stroke-miterlimit="10" stroke-linecap="round" stroke-linejoin="round"/>
<path d="M214.25 323.463H248.266V317.779H219.919C216.73 317.779 214.25 320.384 214.25 323.463Z" fill="#263238" stroke="#263238" stroke-width="1.232" stroke-miterlimit="10" stroke-linecap="round" stroke-linejoin="round"/>
<path d="M206.928 191.686L199.369 204.118C199.369 204.118 173.031 206.722 157.912 210.156C142.912 213.59 139.842 230.165 139.133 233.599C138.306 237.387 133.582 316.596 135.117 316.951C136.653 317.306 147.873 318.49 147.873 318.49C147.873 318.49 166.889 241.531 172.558 240.347C178.227 239.163 261.731 241.058 274.251 234.309C286.653 227.56 289.724 207.906 282.519 194.291C275.432 180.793 206.928 191.686 206.928 191.686Z" fill="#263238" stroke="#263238" stroke-width="1.232" stroke-miterlimit="10" stroke-linecap="round" stroke-linejoin="round"/>
<path d="M258.07 206.841C258.07 206.841 223.109 206.841 206.101 208.38C189.211 209.919 178.582 222.706 179.408 234.072C180.117 245.438 193.818 319.674 193.818 319.674L207.046 318.49L214.133 238.927C214.133 238.927 225.944 246.622 271.77 234.783" fill="#263238"/>
<path d="M258.07 206.841C258.07 206.841 223.109 206.841 206.101 208.38C189.211 209.919 178.582 222.706 179.408 234.072C180.117 245.438 193.818 319.674 193.818 319.674L207.046 318.49L214.133 238.927C214.133 238.927 225.944 246.622 271.77 234.783" stroke="#263238" stroke-width="1.232" stroke-miterlimit="10" stroke-linecap="round" stroke-linejoin="round"/>
<path d="M340.513 85.72C339.332 85.0096 335.67 94.7182 335.67 94.7182C335.67 94.7182 331.182 94.4814 328.466 94.7182C324.332 95.0734 320.906 100.756 320.906 104.545C320.906 108.334 303.544 138.525 303.544 138.525C303.544 138.525 288.544 113.662 283.229 109.518C277.914 105.374 258.426 101.585 258.426 101.585C249.686 100.401 242.954 100.283 234.332 101.585C234.332 101.585 214.725 105.374 209.528 109.518C204.214 113.662 189.214 138.525 189.214 138.525C189.214 138.525 171.851 108.334 171.851 104.545C171.851 100.756 168.426 95.0734 164.292 94.7182C161.694 94.4814 157.088 94.7182 157.088 94.7182C157.088 94.7182 153.308 84.8912 152.245 85.72C151.064 86.4303 152.954 98.5069 154.135 101.23C155.316 103.835 164.647 105.729 164.647 105.729C164.647 105.729 176.34 150.247 180.119 156.285C183.899 162.323 188.032 169.901 198.19 165.283C208.347 160.784 221.103 145.984 221.103 145.984L242.599 146.34H244.253H245.67L271.654 145.984C271.654 145.984 284.41 160.666 294.568 165.283C304.725 169.782 308.859 162.205 312.639 156.285C316.418 150.247 328.111 105.729 328.111 105.729C328.111 105.729 337.56 103.835 338.623 101.23C339.804 98.5069 341.694 86.4303 340.513 85.72Z" fill="#9C9C9C" stroke="#263238" stroke-width="1.232" stroke-miterlimit="10" stroke-linecap="round" stroke-linejoin="round"/>
<path d="M309.804 127.633C306.497 133.671 303.662 138.525 303.662 138.525C303.662 138.525 288.662 113.662 283.347 109.518C278.032 105.374 258.544 101.585 258.544 101.585C249.804 100.401 243.071 100.283 234.449 101.585C234.449 101.585 214.843 105.374 209.646 109.518C204.331 113.662 189.331 138.525 189.331 138.525C189.331 138.525 186.378 133.316 182.835 126.922L172.441 133.197C175.512 143.616 178.583 153.562 180.237 156.167C184.016 162.205 188.15 169.782 198.308 165.165C208.465 160.666 221.221 145.866 221.221 145.866L242.717 146.221H244.371H245.788L271.772 145.866C271.772 145.866 284.528 160.547 294.686 165.165C304.843 169.664 308.977 162.086 312.756 156.167C314.41 153.562 317.599 143.498 320.552 133.079L309.804 127.633Z" fill="white"/>
<mask id="mask0_724_3920" style="mask-type:luminance" maskUnits="userSpaceOnUse" x="172" y="100" width="149" height="67">
<path d="M309.804 127.633C306.497 133.671 303.662 138.525 303.662 138.525C303.662 138.525 288.662 113.662 283.347 109.518C278.032 105.374 258.544 101.585 258.544 101.585C249.804 100.401 243.071 100.283 234.449 101.585C234.449 101.585 214.843 105.374 209.646 109.518C204.331 113.662 189.331 138.525 189.331 138.525C189.331 138.525 186.378 133.316 182.835 126.922L172.441 133.197C175.512 143.616 178.583 153.562 180.237 156.167C184.016 162.205 188.15 169.782 198.308 165.165C208.465 160.666 221.221 145.866 221.221 145.866L242.717 146.221H244.371H245.788L271.772 145.866C271.772 145.866 284.528 160.547 294.686 165.165C304.843 169.664 308.977 162.086 312.756 156.167C314.41 153.562 317.599 143.498 320.552 133.079L309.804 127.633Z" fill="white"/>
</mask>
<g mask="url(#mask0_724_3920)">
<path d="M300.711 145.511C300.475 143.024 300.357 140.657 301.302 139.236C301.893 138.407 302.365 137.815 302.837 137.223C302.483 136.631 302.011 135.802 301.302 134.855C300.593 135.565 299.767 136.513 298.94 137.697C297.404 139.946 297.641 142.906 297.877 145.748C298.113 148.234 298.231 150.602 297.286 152.023C296.46 153.325 295.633 153.207 293.271 152.733C291.499 152.378 289.137 151.904 286.538 152.733C284.412 153.443 283.231 155.101 282.641 157.114C283.349 157.824 284.176 158.416 284.885 159.008C285.239 157.351 285.948 155.811 287.365 155.338C289.255 154.746 291.026 155.101 292.68 155.456C294.924 155.93 297.523 156.522 299.53 153.562C301.184 151.312 300.948 148.352 300.711 145.511Z" fill="#00FBF6"/>
<path d="M271.655 146.103C271.655 146.103 272.01 146.458 272.6 147.168C273.663 146.695 274.49 146.34 274.844 145.984C275.08 145.748 276.262 145.866 277.325 145.984C279.332 146.221 282.167 146.458 285.71 145.392C290.317 144.09 290.435 139.117 290.553 134.737C290.671 132.25 290.671 129.764 291.498 128.225C292.561 126.212 294.332 126.094 295.75 126.449C295.159 125.502 294.569 124.554 293.86 123.607C292.088 123.844 290.199 124.673 289.017 126.922C287.836 129.054 287.836 131.895 287.718 134.618C287.6 139.236 287.246 142.077 284.765 142.788C281.695 143.616 279.332 143.38 277.325 143.261C275.553 143.143 274.017 142.906 272.836 143.853C272.246 144.327 269.884 145.274 267.285 146.221L271.655 146.103Z" fill="#00FBF6"/>
<path d="M206.931 152.733C204.332 151.904 202.088 152.378 200.199 152.733C197.955 153.207 197.01 153.325 196.183 152.023C195.238 150.484 195.356 148.116 195.592 145.748C195.829 142.906 196.065 139.946 194.529 137.697C193.584 136.157 192.64 135.092 191.813 134.381C191.222 135.329 190.75 136.157 190.277 136.749C190.868 137.341 191.577 138.17 192.285 139.236C193.23 140.775 193.112 143.143 192.876 145.511C192.64 148.352 192.403 151.312 193.939 153.562C195.829 156.403 198.427 155.93 200.789 155.456C202.443 155.101 204.214 154.746 206.104 155.338C207.403 155.811 208.112 156.995 208.466 158.535C209.175 157.943 210.002 157.232 210.71 156.64C210.002 154.864 208.821 153.443 206.931 152.733Z" fill="#00FBF6"/>
<path d="M215.908 143.143C213.9 143.261 211.538 143.498 208.467 142.669C205.987 141.959 205.751 139.117 205.515 134.5C205.396 131.777 205.278 128.935 204.215 126.804C202.798 124.318 200.672 123.489 198.664 123.489C197.955 124.554 197.247 125.502 196.656 126.567C198.074 126.094 200.554 125.738 201.853 128.106C202.68 129.646 202.798 132.132 202.798 134.618C202.916 138.999 203.152 143.972 207.641 145.274C211.184 146.34 214.018 145.984 216.026 145.866C217.089 145.748 218.27 145.629 218.507 145.866C218.861 146.103 219.452 146.458 220.278 146.932C220.751 146.458 220.987 146.103 220.987 146.103L225.829 146.221C223.231 145.274 220.751 144.327 220.16 143.735C219.333 142.788 217.68 142.906 215.908 143.143Z" fill="#00FBF6"/>
</g>
<mask id="mask1_724_3920" style="mask-type:luminance" maskUnits="userSpaceOnUse" x="172" y="100" width="149" height="67">
<path d="M309.804 127.633C306.497 133.671 303.662 138.525 303.662 138.525C303.662 138.525 288.662 113.662 283.347 109.518C278.032 105.374 258.544 101.585 258.544 101.585C249.804 100.401 243.071 100.283 234.449 101.585C234.449 101.585 214.843 105.374 209.646 109.518C204.331 113.662 189.331 138.525 189.331 138.525C189.331 138.525 186.378 133.316 182.835 126.922L172.441 133.197C175.512 143.616 178.583 153.562 180.237 156.167C184.016 162.205 188.15 169.782 198.308 165.165C208.465 160.666 221.221 145.866 221.221 145.866L242.717 146.221H244.371H245.788L271.772 145.866C271.772 145.866 284.528 160.547 294.686 165.165C304.843 169.664 308.977 162.086 312.756 156.167C314.41 153.562 317.599 143.498 320.552 133.079L309.804 127.633Z" fill="white"/>
</mask>
<g mask="url(#mask1_724_3920)">
<g opacity="0.5">
<path d="M300.711 145.511C300.475 143.024 300.357 140.657 301.302 139.236C301.893 138.407 302.365 137.815 302.837 137.223C302.483 136.631 302.011 135.802 301.302 134.855C300.593 135.565 299.767 136.513 298.94 137.697C297.404 139.946 297.641 142.906 297.877 145.748C298.113 148.234 298.231 150.602 297.286 152.023C296.46 153.325 295.633 153.207 293.271 152.733C291.499 152.378 289.137 151.904 286.538 152.733C284.412 153.443 283.231 155.101 282.641 157.114C283.349 157.824 284.176 158.416 284.885 159.008C285.239 157.351 285.948 155.811 287.365 155.338C289.255 154.746 291.026 155.101 292.68 155.456C294.924 155.93 297.523 156.522 299.53 153.562C301.184 151.312 300.948 148.352 300.711 145.511Z" fill="white"/>
<path d="M271.655 146.103C271.655 146.103 272.01 146.458 272.6 147.168C273.663 146.695 274.49 146.34 274.844 145.984C275.08 145.748 276.262 145.866 277.325 145.984C279.332 146.221 282.167 146.458 285.71 145.392C290.317 144.09 290.435 139.117 290.553 134.737C290.671 132.25 290.671 129.764 291.498 128.225C292.561 126.212 294.332 126.094 295.75 126.449C295.159 125.502 294.569 124.554 293.86 123.607C292.088 123.844 290.199 124.673 289.017 126.922C287.836 129.054 287.836 131.895 287.718 134.618C287.6 139.236 287.246 142.077 284.765 142.788C281.695 143.616 279.332 143.38 277.325 143.261C275.553 143.143 274.017 142.906 272.836 143.853C272.246 144.327 269.884 145.274 267.285 146.221L271.655 146.103Z" fill="white"/>
<path d="M206.931 152.733C204.332 151.904 202.088 152.378 200.199 152.733C197.955 153.207 197.01 153.325 196.183 152.023C195.238 150.484 195.356 148.116 195.592 145.748C195.829 142.906 196.065 139.946 194.529 137.697C193.584 136.157 192.64 135.092 191.813 134.381C191.222 135.329 190.75 136.157 190.277 136.749C190.868 137.341 191.577 138.17 192.285 139.236C193.23 140.775 193.112 143.143 192.876 145.511C192.64 148.352 192.403 151.312 193.939 153.562C195.829 156.403 198.427 155.93 200.789 155.456C202.443 155.101 204.214 154.746 206.104 155.338C207.403 155.811 208.112 156.995 208.466 158.535C209.175 157.943 210.002 157.232 210.71 156.64C210.002 154.864 208.821 153.443 206.931 152.733Z" fill="white"/>
<path d="M215.908 143.143C213.9 143.261 211.538 143.498 208.467 142.669C205.987 141.959 205.751 139.117 205.515 134.5C205.396 131.777 205.278 128.935 204.215 126.804C202.798 124.318 200.672 123.489 198.664 123.489C197.955 124.554 197.247 125.502 196.656 126.567C198.074 126.094 200.554 125.738 201.853 128.106C202.68 129.646 202.798 132.132 202.798 134.618C202.916 138.999 203.152 143.972 207.641 145.274C211.184 146.34 214.018 145.984 216.026 145.866C217.089 145.748 218.27 145.629 218.507 145.866C218.861 146.103 219.452 146.458 220.278 146.932C220.751 146.458 220.987 146.103 220.987 146.103L225.829 146.221C223.231 145.274 220.751 144.327 220.16 143.735C219.333 142.788 217.68 142.906 215.908 143.143Z" fill="white"/>
</g>
</g>
<path d="M309.804 127.633C306.497 133.671 303.662 138.525 303.662 138.525C303.662 138.525 288.662 113.662 283.347 109.518C278.032 105.374 258.544 101.585 258.544 101.585C249.804 100.401 243.071 100.283 234.449 101.585C234.449 101.585 214.843 105.374 209.646 109.518C204.331 113.662 189.331 138.525 189.331 138.525C189.331 138.525 186.378 133.316 182.835 126.922L172.441 133.197C175.512 143.616 178.583 153.562 180.237 156.167C184.016 162.205 188.15 169.782 198.308 165.165C208.465 160.666 221.221 145.866 221.221 145.866L242.717 146.221H244.371H245.788L271.772 145.866C271.772 145.866 284.528 160.547 294.686 165.165C304.843 169.664 308.977 162.086 312.756 156.167C314.41 153.562 317.599 143.498 320.552 133.079L309.804 127.633Z" stroke="#263238" stroke-width="1.232" stroke-miterlimit="10" stroke-linecap="round" stroke-linejoin="round"/>
<path d="M214.016 127.988C214.016 127.988 209.174 138.525 210.237 145.392C211.418 152.141 211.418 153.68 211.418 153.68C211.418 153.68 204.213 173.334 203.15 180.438C201.969 187.66 205.394 193.225 209.528 196.303C213.662 199.263 270.119 200.092 278.741 197.843C287.363 195.593 286.654 187.305 286.3 179.728C285.945 172.15 282.875 155.93 282.875 155.93C282.875 155.93 284.056 132.961 279.095 127.278" fill="white"/>
<mask id="mask2_724_3920" style="mask-type:luminance" maskUnits="userSpaceOnUse" x="202" y="127" width="85" height="73">
<path d="M214.016 127.988C214.016 127.988 209.174 138.525 210.237 145.392C211.418 152.141 211.418 153.68 211.418 153.68C211.418 153.68 204.213 173.334 203.15 180.438C201.969 187.66 205.394 193.225 209.528 196.303C213.662 199.263 270.119 200.092 278.741 197.843C287.363 195.593 286.654 187.305 286.3 179.728C285.945 172.15 282.875 155.93 282.875 155.93C282.875 155.93 284.056 132.961 279.095 127.278" fill="white"/>
</mask>
<g mask="url(#mask2_724_3920)">
<path d="M257.243 143.143C255.59 143.143 253.818 142.432 251.928 140.775C246.85 136.039 243.425 135.21 239.763 137.933C239.173 138.407 238.582 138.762 238.11 139.236C234.33 142.077 230.787 144.8 225.236 141.367C223.936 140.538 222.755 139.709 221.81 138.999C218.031 136.276 216.377 135.21 213.779 137.46C211.771 139.117 210.236 140.065 208.464 139.828C206.22 139.591 204.566 137.46 201.495 133.197L201.259 132.961C199.96 131.303 198.661 130.356 197.125 130.238C194.527 130.001 192.401 132.25 192.283 132.25C191.692 132.842 190.865 132.842 190.393 132.25C189.802 131.658 189.802 130.829 190.393 130.356C190.511 130.238 193.464 127.278 197.243 127.633C199.606 127.751 201.614 129.054 203.385 131.421L203.621 131.658C206.102 134.855 207.637 136.986 208.7 137.223C209.291 137.341 210.354 136.749 212.007 135.447C216.377 131.777 219.803 134.263 223.346 136.868C224.409 137.578 225.472 138.407 226.653 139.117C230.669 141.604 232.795 139.946 236.456 137.105C237.047 136.631 237.637 136.276 238.228 135.802C244.251 131.421 249.566 134.855 253.936 138.881C257.243 141.84 259.251 140.538 263.503 137.341C264.33 136.749 265.157 136.039 266.102 135.447L266.574 135.092C272.125 131.185 272.716 131.54 280.275 135.684L282.283 136.749C284.881 138.17 286.535 139.117 287.243 138.999C287.834 138.999 288.543 138.17 289.96 136.513C290.551 135.802 291.259 135.092 292.086 134.145C298.228 127.633 300.236 127.988 305.078 130.238L305.432 130.474C306.141 130.829 306.377 131.54 306.141 132.25C305.787 132.961 305.078 133.197 304.369 132.961L304.015 132.724C299.999 130.829 299.173 130.474 294.094 135.921C293.267 136.749 292.558 137.578 291.968 138.17C288.07 142.669 287.243 142.432 280.984 138.881L278.976 137.815C272.362 134.145 272.362 134.145 268.11 136.986L267.637 137.341C266.692 137.933 265.865 138.644 265.157 139.236C262.558 141.248 259.96 143.143 257.243 143.143ZM265.039 152.378C265.865 151.786 266.692 151.194 267.519 150.484L267.991 150.128C272.125 147.168 272.125 147.287 278.858 150.957L280.865 152.023C287.125 155.575 287.952 155.693 291.85 151.312C292.44 150.602 293.149 149.892 293.976 149.063C299.054 143.616 299.763 143.972 303.897 145.866L304.251 146.103C304.96 146.458 305.787 146.103 306.023 145.392C306.377 144.682 306.023 143.853 305.314 143.616L304.96 143.38C300.117 141.13 298.11 140.657 291.968 147.287C291.141 148.234 290.432 148.944 289.842 149.655C288.425 151.312 287.716 152.023 287.125 152.141C286.417 152.141 284.763 151.312 282.165 149.892L280.157 148.826C272.598 144.682 272.007 144.327 266.456 148.234L265.984 148.589C265.039 149.181 264.212 149.892 263.385 150.484C259.015 153.799 257.007 155.101 253.818 152.023C249.448 147.997 244.251 144.564 238.11 148.944C237.519 149.418 236.928 149.773 236.338 150.247C232.677 153.088 230.551 154.746 226.535 152.259C225.354 151.549 224.291 150.72 223.228 150.01C219.684 147.405 216.259 144.919 211.889 148.589C210.236 149.892 209.291 150.484 208.582 150.365C207.519 150.247 205.865 148.116 203.503 144.8L203.267 144.564C201.495 142.196 199.488 141.012 197.125 140.775C193.346 140.538 190.393 143.38 190.275 143.498C189.684 144.09 189.684 144.919 190.275 145.392C190.865 145.984 191.692 145.984 192.165 145.392C192.165 145.392 194.409 143.261 197.007 143.38C198.543 143.498 199.842 144.445 201.141 146.103L201.377 146.34C204.566 150.602 206.102 152.615 208.346 152.97C210.117 153.207 211.653 152.259 213.661 150.602C216.377 148.352 217.913 149.418 221.692 152.141C222.755 152.851 223.818 153.68 225.117 154.509C230.669 157.943 234.212 155.219 237.991 152.378C238.582 151.904 239.054 151.549 239.645 151.076C243.306 148.471 246.732 149.181 251.81 153.917C253.7 155.693 255.472 156.285 257.125 156.285C259.96 156.285 262.558 154.391 265.039 152.378Z" fill="#00FBF6"/>
</g>
<mask id="mask3_724_3920" style="mask-type:luminance" maskUnits="userSpaceOnUse" x="202" y="127" width="85" height="73">
<path d="M214.016 127.988C214.016 127.988 209.174 138.525 210.237 145.392C211.418 152.141 211.418 153.68 211.418 153.68C211.418 153.68 204.213 173.334 203.15 180.438C201.969 187.66 205.394 193.225 209.528 196.303C213.662 199.263 270.119 200.092 278.741 197.843C287.363 195.593 286.654 187.305 286.3 179.728C285.945 172.15 282.875 155.93 282.875 155.93C282.875 155.93 284.056 132.961 279.095 127.278" fill="white"/>
</mask>
<g mask="url(#mask3_724_3920)">
<path opacity="0.5" d="M257.243 143.143C255.59 143.143 253.818 142.432 251.928 140.775C246.85 136.039 243.425 135.21 239.763 137.933C239.173 138.407 238.582 138.762 238.11 139.236C234.33 142.077 230.787 144.8 225.236 141.367C223.936 140.538 222.755 139.709 221.81 138.999C218.031 136.276 216.377 135.21 213.779 137.46C211.771 139.117 210.236 140.065 208.464 139.828C206.22 139.591 204.566 137.46 201.495 133.197L201.259 132.961C199.96 131.303 198.661 130.356 197.125 130.238C194.527 130.001 192.401 132.25 192.283 132.25C191.692 132.842 190.865 132.842 190.393 132.25C189.802 131.658 189.802 130.829 190.393 130.356C190.511 130.238 193.464 127.278 197.243 127.633C199.606 127.751 201.614 129.054 203.385 131.421L203.621 131.658C206.102 134.855 207.637 136.986 208.7 137.223C209.291 137.341 210.354 136.749 212.007 135.447C216.377 131.777 219.803 134.263 223.346 136.868C224.409 137.578 225.472 138.407 226.653 139.117C230.669 141.604 232.795 139.946 236.456 137.105C237.047 136.631 237.637 136.276 238.228 135.802C244.251 131.421 249.566 134.855 253.936 138.881C257.243 141.84 259.251 140.538 263.503 137.341C264.33 136.749 265.157 136.039 266.102 135.447L266.574 135.092C272.125 131.185 272.716 131.54 280.275 135.684L282.283 136.749C284.881 138.17 286.535 139.117 287.243 138.999C287.834 138.999 288.543 138.17 289.96 136.513C290.551 135.802 291.259 135.092 292.086 134.145C298.228 127.633 300.236 127.988 305.078 130.238L305.432 130.474C306.141 130.829 306.377 131.54 306.141 132.25C305.787 132.961 305.078 133.197 304.369 132.961L304.015 132.724C299.999 130.829 299.173 130.474 294.094 135.921C293.267 136.749 292.558 137.578 291.968 138.17C288.07 142.669 287.243 142.432 280.984 138.881L278.976 137.815C272.362 134.145 272.362 134.145 268.11 136.986L267.637 137.341C266.692 137.933 265.865 138.644 265.157 139.236C262.558 141.248 259.96 143.143 257.243 143.143ZM265.039 152.378C265.865 151.786 266.692 151.194 267.519 150.484L267.991 150.128C272.125 147.168 272.125 147.287 278.858 150.957L280.865 152.023C287.125 155.575 287.952 155.693 291.85 151.312C292.44 150.602 293.149 149.892 293.976 149.063C299.054 143.616 299.763 143.972 303.897 145.866L304.251 146.103C304.96 146.458 305.787 146.103 306.023 145.392C306.377 144.682 306.023 143.853 305.314 143.616L304.96 143.38C300.117 141.13 298.11 140.657 291.968 147.287C291.141 148.234 290.432 148.944 289.842 149.655C288.425 151.312 287.716 152.023 287.125 152.141C286.417 152.141 284.763 151.312 282.165 149.892L280.157 148.826C272.598 144.682 272.007 144.327 266.456 148.234L265.984 148.589C265.039 149.181 264.212 149.892 263.385 150.484C259.015 153.799 257.007 155.101 253.818 152.023C249.448 147.997 244.251 144.564 238.11 148.944C237.519 149.418 236.928 149.773 236.338 150.247C232.677 153.088 230.551 154.746 226.535 152.259C225.354 151.549 224.291 150.72 223.228 150.01C219.684 147.405 216.259 144.919 211.889 148.589C210.236 149.892 209.291 150.484 208.582 150.365C207.519 150.247 205.865 148.116 203.503 144.8L203.267 144.564C201.495 142.196 199.488 141.012 197.125 140.775C193.346 140.538 190.393 143.38 190.275 143.498C189.684 144.09 189.684 144.919 190.275 145.392C190.865 145.984 191.692 145.984 192.165 145.392C192.165 145.392 194.409 143.261 197.007 143.38C198.543 143.498 199.842 144.445 201.141 146.103L201.377 146.34C204.566 150.602 206.102 152.615 208.346 152.97C210.117 153.207 211.653 152.259 213.661 150.602C216.377 148.352 217.913 149.418 221.692 152.141C222.755 152.851 223.818 153.68 225.117 154.509C230.669 157.943 234.212 155.219 237.991 152.378C238.582 151.904 239.054 151.549 239.645 151.076C243.306 148.471 246.732 149.181 251.81 153.917C253.7 155.693 255.472 156.285 257.125 156.285C259.96 156.285 262.558 154.391 265.039 152.378Z" fill="white"/>
</g>
<path d="M214.016 127.988C214.016 127.988 209.174 138.525 210.237 145.392C211.418 152.141 211.418 153.68 211.418 153.68C211.418 153.68 204.213 173.334 203.15 180.438C201.969 187.66 205.394 193.225 209.528 196.303C213.662 199.263 270.119 200.092 278.741 197.843C287.363 195.593 286.654 187.305 286.3 179.728C285.945 172.15 282.875 155.93 282.875 155.93C282.875 155.93 284.056 132.961 279.095 127.278" stroke="#263238" stroke-width="1.232" stroke-miterlimit="10" stroke-linecap="round" stroke-linejoin="round"/>
<path d="M234.331 101.585C234.331 101.585 233.741 101.704 232.678 101.94C232.56 102.651 232.441 103.361 232.441 104.072C232.441 111.294 240.119 117.095 249.567 117.095C259.016 117.095 266.693 111.294 266.693 104.072C266.693 103.835 266.693 103.716 266.693 103.48C262.087 102.296 258.426 101.585 258.426 101.585C249.686 100.401 242.953 100.164 234.331 101.585Z" fill="#00FBF6" stroke="#263238" stroke-width="1.232" stroke-miterlimit="10" stroke-linecap="round" stroke-linejoin="round"/>
<path d="M238.111 94.363C238.111 94.363 236.93 103.361 238.111 106.44C239.292 109.518 246.379 115.083 253.583 112.833C260.788 110.583 261.851 103.835 261.851 101.94C261.851 100.046 261.851 91.403 261.851 91.403L238.583 92.1134L238.111 94.363Z" fill="#9C9C9C" stroke="#263238" stroke-width="1.232" stroke-miterlimit="10" stroke-linecap="round" stroke-linejoin="round"/>
<path d="M250.158 90.6927C264.9 90.6927 276.851 78.9248 276.851 64.4084C276.851 49.8919 264.9 38.1241 250.158 38.1241C235.416 38.1241 223.465 49.8919 223.465 64.4084C223.465 78.9248 235.416 90.6927 250.158 90.6927Z" fill="#263238" stroke="#263238" stroke-width="1.232" stroke-miterlimit="10" stroke-linecap="round" stroke-linejoin="round"/>
<path d="M233.268 73.2882C233.268 73.2882 231.024 67.9603 229.489 72.933C227.953 77.9057 231.379 83.8256 233.623 84.2992C235.867 84.536 233.268 73.2882 233.268 73.2882Z" fill="#9C9C9C" stroke="#263238" stroke-width="1.232" stroke-miterlimit="10" stroke-linecap="round" stroke-linejoin="round"/>
<path d="M265.748 73.2882C265.748 73.2882 267.992 67.9603 269.527 72.933C271.063 77.7873 267.638 83.8256 265.394 84.2992C263.15 84.536 265.748 73.2882 265.748 73.2882Z" fill="#9C9C9C" stroke="#263238" stroke-width="1.232" stroke-miterlimit="10" stroke-linecap="round" stroke-linejoin="round"/>
<path d="M261.379 55.6469C259.371 54.1078 256.772 53.5158 254.174 53.871C252.048 54.2262 249.213 54.5814 247.205 54.3446C243.426 53.9894 240.473 52.4502 237.402 55.5285C234.449 58.4885 232.914 72.4594 232.914 79.6817C232.914 86.9039 238.229 97.0861 241.89 99.6909C245.67 102.296 256.182 101.94 258.78 99.6909C261.379 97.4413 265.512 89.1535 266.339 82.2864C267.048 75.5378 265.631 62.2772 264.095 58.8437C263.623 57.6597 262.442 56.4757 261.379 55.6469Z" fill="#9C9C9C" stroke="#263238" stroke-width="1.232" stroke-miterlimit="10" stroke-linecap="round" stroke-linejoin="round"/>
<path d="M244.609 74.3538C245.392 74.3538 246.026 73.3466 246.026 72.1042C246.026 70.8618 245.392 69.8547 244.609 69.8547C243.826 69.8547 243.191 70.8618 243.191 72.1042C243.191 73.3466 243.826 74.3538 244.609 74.3538Z" fill="#263238"/>
<path d="M257.128 72.1042C257.128 73.4066 256.537 74.3538 255.71 74.3538C254.884 74.3538 254.293 73.2882 254.293 72.1042C254.293 70.8018 254.884 69.8547 255.71 69.8547C256.419 69.7363 257.128 70.8018 257.128 72.1042Z" fill="#263238"/>
<path d="M251.811 85.128C251.811 86.4303 251.221 87.3775 250.394 87.3775C249.567 87.3775 248.977 86.3119 248.977 85.128C248.977 83.8256 249.567 82.8784 250.394 82.8784C251.221 82.76 251.811 83.8256 251.811 85.128Z" fill="#263238"/>
<path d="M247.678 74.8274C245.316 78.4977 249.804 80.8656 252.757 78.6161C254.765 77.0769 252.757 74.8274 252.757 74.8274" fill="#9C9C9C"/>
<path d="M247.678 74.8274C245.316 78.4977 249.804 80.8656 252.757 78.6161C254.765 77.0769 252.757 74.8274 252.757 74.8274" stroke="#263238" stroke-width="1.232" stroke-miterlimit="10" stroke-linecap="round" stroke-linejoin="round"/>
<path d="M239.766 66.8947C239.766 66.8947 243.545 63.3428 247.443 65.1188" stroke="#263238" stroke-width="1.232" stroke-miterlimit="10" stroke-linecap="round" stroke-linejoin="round"/>
<path d="M253.82 65.3555C253.82 65.3555 257.364 63.106 260.671 67.3683" stroke="#263238" stroke-width="1.232" stroke-miterlimit="10" stroke-linecap="round" stroke-linejoin="round"/>
<path d="M135.118 316.951C135.118 316.951 112.559 321.45 112.559 323.699C112.559 326.067 141.377 332.579 144.448 332.934C147.519 333.29 147.992 318.49 147.992 318.49L135.118 316.951Z" fill="white" stroke="#263238" stroke-width="1.232" stroke-miterlimit="10" stroke-linecap="round" stroke-linejoin="round"/>
<path d="M146.338 330.803L114.094 322.515C113.149 322.989 112.559 323.344 112.559 323.699C112.559 326.067 141.377 332.579 144.448 332.934C145.157 333.053 145.866 332.224 146.338 330.803Z" fill="#00FBF6" stroke="#263238" stroke-width="1.232" stroke-miterlimit="10" stroke-linecap="round" stroke-linejoin="round"/>
<path d="M193.819 319.674C193.819 319.674 170.906 329.619 172.441 331.869C173.976 334.237 203.976 333.053 207.047 332.698C210.118 332.342 207.047 318.608 207.047 318.608L193.819 319.674Z" fill="white" stroke="#263238" stroke-width="1.232" stroke-miterlimit="10" stroke-linecap="round" stroke-linejoin="round"/>
<path d="M173.266 330.448C172.557 331.04 172.321 331.514 172.557 331.869C174.093 334.237 204.093 333.053 207.164 332.698C207.872 332.579 208.227 331.75 208.463 330.448H173.266Z" fill="#00FBF6" stroke="#263238" stroke-width="1.232" stroke-miterlimit="10" stroke-linecap="round" stroke-linejoin="round"/>
<path d="M100.05 168.014H186.625V164.462H100.05V168.014Z" fill="white" stroke="#263238" stroke-width="1.232" stroke-miterlimit="10" stroke-linecap="round" stroke-linejoin="round"/>
<path d="M75.6596 168.014H162.234V164.462H75.6596V168.014Z" fill="white" stroke="#263238" stroke-width="1.232" stroke-miterlimit="10" stroke-linecap="round" stroke-linejoin="round"/>
<path d="M85.2757 158.298H157.441L149.646 103.006H77.4805L85.2757 158.298Z" fill="white" stroke="#263238" stroke-width="1.232" stroke-miterlimit="10" stroke-linecap="round" stroke-linejoin="round"/>
<path d="M82.3226 158.298H154.488L146.693 103.006H74.5273L82.3226 158.298Z" fill="#263238" stroke="#263238" stroke-width="1.232" stroke-miterlimit="10" stroke-linecap="round" stroke-linejoin="round"/>
<path d="M104.408 132.605L97.2031 168.006H115.746L122.951 132.605H104.408ZM117.046 143.024C116.928 143.38 116.691 143.498 116.455 143.498L105.943 143.38C105.471 143.38 105.235 143.024 105.353 142.551L106.298 138.525C106.416 138.17 106.652 138.052 106.888 138.052L117.4 138.17C117.872 138.17 118.109 138.525 117.991 138.999L117.046 143.024Z" fill="white" stroke="#263238" stroke-width="1.232" stroke-miterlimit="10" stroke-linecap="round" stroke-linejoin="round"/>
<path d="M89.1032 102.045C90.797 94.8539 86.3549 87.648 79.1814 85.95C72.0079 84.252 64.8195 88.705 63.1256 95.8959C61.4317 103.087 65.8739 110.293 73.0474 111.991C80.2209 113.689 87.4093 109.236 89.1032 102.045Z" fill="#00FBF6" stroke="#263238" stroke-width="1.232" stroke-miterlimit="10" stroke-linecap="round" stroke-linejoin="round"/>
<path d="M75.946 101.704L72.0484 106.203C71.8122 106.44 71.6941 106.676 71.4578 106.795C70.8673 107.268 70.1586 107.268 69.5681 107.15C68.9775 106.913 68.6232 106.676 68.5051 106.084C68.2689 105.374 68.387 104.545 69.0956 103.835L73.7019 98.9805L69.3319 93.8894C68.9775 93.4158 68.7413 92.9422 68.7413 92.4686C68.7413 91.995 68.8594 91.6398 69.0956 91.2846C69.3319 91.0479 69.6862 90.8111 70.1586 90.5743C70.513 90.4559 70.9854 90.4559 71.4578 90.5743C71.9303 90.6927 72.4027 91.0479 72.7571 91.5214L76.5366 95.9022L80.0799 91.7582C80.3161 91.5214 80.5523 91.2847 80.7886 91.0479C81.4972 90.5743 82.0878 90.3375 82.7964 90.6927C83.2689 90.9295 83.6232 91.2847 83.8594 91.7582C84.0956 92.3502 83.9775 92.9422 83.6232 93.4158L78.8988 98.6253L83.6232 104.19C83.7413 104.427 83.8594 104.545 83.9775 104.782C84.2138 105.374 84.0956 105.966 83.7413 106.558C83.387 107.032 82.7964 107.268 82.2059 107.268C81.3791 107.268 80.6705 106.913 80.0799 106.084L75.946 101.704Z" fill="#263238"/>
<path d="M246.379 188.134L242.6 329.856C242.6 331.75 241.064 333.171 239.174 333.171C237.285 333.171 235.749 331.632 235.749 329.738L233.859 188.134H246.379Z" fill="white" stroke="#263238" stroke-width="1.232" stroke-miterlimit="10" stroke-linecap="round" stroke-linejoin="round"/>
<path d="M200.785 188.134L197.006 329.856C197.006 331.75 195.47 333.171 193.581 333.171C191.691 333.171 190.155 331.632 190.155 329.738L188.266 188.016H200.785V188.134Z" fill="white" stroke="#263238" stroke-width="1.232" stroke-miterlimit="10" stroke-linecap="round" stroke-linejoin="round"/>
<path d="M87.7541 188.134L83.9745 329.856C83.9745 331.75 82.4391 333.171 80.5493 333.171C78.6596 333.171 77.1241 331.632 77.1241 329.738L75.2344 188.016H87.7541V188.134Z" fill="white" stroke="#263238" stroke-width="1.232" stroke-miterlimit="10" stroke-linecap="round" stroke-linejoin="round"/>
<path d="M42.1642 188.134L38.3847 329.856C38.3847 331.75 36.8493 333.171 34.9595 333.171C33.0697 333.171 31.5343 331.632 31.5343 329.738L29.6445 188.016H42.1642V188.134Z" fill="white" stroke="#263238" stroke-width="1.232" stroke-miterlimit="10" stroke-linecap="round" stroke-linejoin="round"/>
<path d="M25.4377 189.651L250.91 189.651V172.72L25.4377 172.72V189.651Z" fill="white" stroke="#263238" stroke-width="1.232" stroke-miterlimit="10" stroke-linecap="round" stroke-linejoin="round"/>
<path d="M187.887 189.651H250.84V172.72H187.887V189.651Z" fill="white" stroke="#263238" stroke-width="1.232" stroke-miterlimit="10" stroke-linecap="round" stroke-linejoin="round"/>
<path d="M25.4377 181.17L250.91 181.17V172.646L25.4377 172.646V181.17Z" fill="#263238" stroke="#263238" stroke-width="1.232" stroke-miterlimit="10" stroke-linecap="round" stroke-linejoin="round"/>
<path d="M21.895 176.156L254.336 176.156V166.802L21.895 166.802V176.156Z" fill="#00FBF6" stroke="#263238" stroke-width="1.232" stroke-miterlimit="10" stroke-linecap="round" stroke-linejoin="round"/>
<path d="M21.8843 176.156L183.695 176.156V166.802L21.8843 166.802V176.156Z" fill="#00FBF6" stroke="#263238" stroke-width="1.232" stroke-miterlimit="10" stroke-linecap="round" stroke-linejoin="round"/>
<path d="M529.605 333.29H539.291" stroke="#263238" stroke-width="1.232" stroke-miterlimit="10" stroke-linecap="round" stroke-linejoin="round"/>
<path d="M0.707031 333.29H513.778" stroke="#263238" stroke-width="1.232" stroke-miterlimit="10" stroke-linecap="round" stroke-linejoin="round"/>
</g>
<defs>
<clipPath id="clip0_724_3920">
<rect width="540" height="334" fill="white"/>
</clipPath>
</defs>
</svg>
