<svg width="420" height="364" viewBox="0 0 420 364" fill="none" xmlns="http://www.w3.org/2000/svg">
<g clip-path="url(#clip0_724_3790)">
<path d="M414.498 204.8H267.598C264.998 204.8 262.898 202.7 262.898 200.1V181.5C262.898 178.9 264.998 176.8 267.598 176.8H414.498C417.098 176.8 419.198 178.9 419.198 181.5V200.1C419.198 202.7 417.098 204.8 414.498 204.8Z" fill="#00FBF6"/>
<path d="M274.899 194.7C274.799 194.6 274.699 194.4 274.699 194.2V185C274.699 184.8 274.799 184.6 274.899 184.5C274.999 184.4 275.199 184.3 275.399 184.3C275.599 184.3 275.799 184.4 275.899 184.5C275.999 184.6 276.099 184.8 276.099 185V194.1C276.099 194.3 275.999 194.5 275.899 194.6C275.799 194.7 275.599 194.8 275.399 194.8C275.199 194.8 275.099 194.8 274.899 194.7Z" fill="#263238"/>
<path d="M279.001 194.7C278.901 194.6 278.801 194.4 278.801 194.2V188.1C278.801 187.9 278.901 187.8 279.001 187.6C279.101 187.5 279.301 187.4 279.501 187.4C279.701 187.4 279.801 187.5 280.001 187.6C280.101 187.7 280.201 187.9 280.201 188V188.6C280.401 188.2 280.701 187.8 281.101 187.6C281.501 187.4 282.001 187.2 282.601 187.2C283.401 187.2 284.101 187.4 284.501 187.9C285.001 188.4 285.201 189.1 285.201 190V194C285.201 194.2 285.101 194.4 285.001 194.5C284.901 194.6 284.701 194.7 284.501 194.7C284.301 194.7 284.201 194.6 284.001 194.5C283.901 194.4 283.801 194.2 283.801 194V190C283.801 189.4 283.701 188.9 283.401 188.6C283.101 188.3 282.701 188.1 282.201 188.1C281.601 188.1 281.201 188.3 280.801 188.7C280.401 189.1 280.201 189.6 280.201 190.3V194C280.201 194.2 280.101 194.4 280.001 194.5C279.901 194.6 279.701 194.7 279.501 194.7C279.301 194.9 279.101 194.8 279.001 194.7Z" fill="#263238"/>
<path d="M288.4 194.4C288.1 194 287.9 193.5 287.9 192.7V188.5H287C286.8 188.5 286.7 188.5 286.6 188.4C286.5 188.3 286.5 188.2 286.5 188.1C286.5 188 286.5 187.9 286.6 187.8C286.7 187.7 286.8 187.7 287 187.7H287.9L288.1 185.6C288.1 185.4 288.2 185.3 288.3 185.2C288.4 185.1 288.6 185 288.7 185C288.8 185 289 185 289.1 185.1C289.2 185.2 289.2 185.3 289.2 185.5V187.6H290.6C290.8 187.6 290.9 187.6 291 187.7C291.1 187.8 291.1 187.9 291.1 188C291.1 188.3 290.9 188.4 290.6 188.4H289.2V192.4C289.2 192.9 289.3 193.3 289.4 193.5C289.5 193.7 289.8 193.8 290.1 193.8H290.2H290.7C290.9 193.8 291 193.9 291.1 194C291.2 194.1 291.2 194.2 291.2 194.4C291.2 194.5 291.2 194.6 291.1 194.7C291 194.8 291 194.8 290.9 194.9C290.8 194.9 290.7 195 290.6 195C290.5 195 290.3 195 290.2 195H289.8C289.2 195 288.7 194.8 288.4 194.4Z" fill="#263238"/>
<path d="M294.101 194.5C293.601 194.2 293.101 193.8 292.801 193.2C292.501 192.6 292.301 191.9 292.301 191.2C292.301 190.5 292.401 189.9 292.701 189.3C293.001 188.7 293.401 188.3 293.901 187.9C294.401 187.5 295.101 187.4 295.801 187.4C296.401 187.4 296.901 187.5 297.301 187.7C297.701 187.9 298.101 188.2 298.301 188.5C298.601 188.8 298.701 189.2 298.901 189.6C299.001 190 299.101 190.5 299.101 191C299.101 191.1 299.101 191.3 299.001 191.4C298.901 191.5 298.801 191.5 298.601 191.5H293.501C293.501 192.3 293.701 193 294.201 193.4C294.601 193.8 295.201 194.1 295.901 194.1C296.301 194.1 296.701 194 297.101 193.9C297.401 193.7 297.801 193.5 298.201 193.3C298.301 193.2 298.401 193.2 298.501 193.2C298.601 193.2 298.701 193.2 298.801 193.3C298.901 193.4 298.901 193.5 298.901 193.6C298.901 193.8 298.801 193.9 298.701 194C297.901 194.7 297.001 195 295.901 195C295.301 195 294.701 194.8 294.101 194.5ZM298.001 190.6C298.001 189.9 297.801 189.4 297.401 188.9C297.101 188.5 296.601 188.2 295.901 188.2C295.601 188.2 295.201 188.3 295.001 188.4C294.701 188.5 294.501 188.7 294.301 188.9C294.101 189.1 294.001 189.4 293.901 189.6C293.801 189.9 293.701 190.2 293.701 190.5H298.001V190.6Z" fill="#263238"/>
<path d="M301.2 194.7C301.1 194.6 301 194.4 301 194.2V188.1C301 187.9 301.1 187.8 301.2 187.6C301.3 187.5 301.5 187.4 301.7 187.4C301.9 187.4 302 187.5 302.2 187.6C302.3 187.7 302.4 187.9 302.4 188V188.9C302.5 188.4 302.8 188.1 303.1 187.8C303.5 187.5 303.9 187.3 304.4 187.3C304.6 187.3 304.7 187.4 304.8 187.5C304.9 187.6 304.9 187.8 304.9 187.9C304.9 188 304.9 188.2 304.8 188.3C304.7 188.4 304.6 188.5 304.4 188.5C303.7 188.5 303.2 188.7 302.9 189C302.5 189.3 302.4 189.8 302.4 190.4V194.2C302.4 194.4 302.3 194.5 302.2 194.7C302.1 194.8 301.9 194.9 301.7 194.9C301.5 194.9 301.4 194.8 301.2 194.7Z" fill="#263238"/>
<path d="M306.598 194.7C306.498 194.6 306.398 194.4 306.398 194.2V188.1C306.398 187.9 306.498 187.8 306.598 187.6C306.698 187.5 306.898 187.4 307.098 187.4C307.298 187.4 307.398 187.5 307.598 187.6C307.698 187.7 307.798 187.9 307.798 188V188.6C307.998 188.2 308.298 187.8 308.698 187.6C309.098 187.4 309.598 187.2 310.198 187.2C310.998 187.2 311.698 187.4 312.098 187.9C312.598 188.4 312.798 189.1 312.798 190V194C312.798 194.2 312.698 194.4 312.598 194.5C312.498 194.6 312.298 194.7 312.098 194.7C311.898 194.7 311.798 194.6 311.598 194.5C311.498 194.4 311.398 194.2 311.398 194V190C311.398 189.4 311.298 188.9 310.998 188.6C310.698 188.3 310.298 188.1 309.798 188.1C309.198 188.1 308.798 188.3 308.398 188.7C307.998 189.1 307.798 189.6 307.798 190.3V194C307.798 194.2 307.698 194.4 307.598 194.5C307.498 194.6 307.298 194.7 307.098 194.7C306.898 194.9 306.698 194.8 306.598 194.7Z" fill="#263238"/>
<path d="M315.001 194.4C314.501 194 314.301 193.5 314.301 192.8C314.301 192.5 314.301 192.3 314.401 192.1C314.501 191.9 314.501 191.7 314.701 191.5C314.801 191.3 315.001 191.2 315.201 191.1C315.401 191 315.601 190.9 315.801 190.8C316.001 190.7 316.301 190.7 316.701 190.6C317.101 190.6 317.401 190.5 317.801 190.5C318.201 190.5 318.701 190.5 319.201 190.5V189.7C319.201 189.2 319.101 188.8 318.801 188.5C318.501 188.2 318.101 188.1 317.601 188.1C317.301 188.1 317.001 188.1 316.701 188.2C316.401 188.3 316.201 188.3 316.001 188.4C315.801 188.5 315.601 188.6 315.401 188.7C315.401 188.7 315.301 188.7 315.201 188.7C315.101 188.7 315.001 188.6 314.901 188.5C314.801 188.4 314.801 188.3 314.801 188.2C314.801 188.1 314.901 187.9 315.001 187.9C315.801 187.5 316.701 187.3 317.701 187.3C318.601 187.3 319.301 187.5 319.801 187.9C320.301 188.3 320.601 189 320.601 189.8V194.1C320.601 194.3 320.501 194.4 320.401 194.6C320.301 194.7 320.101 194.8 319.901 194.8C319.701 194.8 319.601 194.7 319.401 194.6C319.301 194.5 319.201 194.3 319.201 194.2V193.5C318.701 194.5 318.001 194.9 316.901 194.9C316.101 195 315.501 194.8 315.001 194.4ZM318.501 193.4C318.901 192.9 319.101 192.3 319.101 191.6V191.4C318.501 191.4 318.001 191.4 317.601 191.4C317.201 191.4 316.901 191.5 316.601 191.5C316.301 191.5 316.101 191.6 315.901 191.8C315.801 191.9 315.601 192 315.601 192.2C315.501 192.4 315.501 192.6 315.501 192.8C315.501 193.2 315.601 193.6 315.901 193.8C316.201 194 316.501 194.1 317.001 194.1C317.601 194.1 318.101 193.9 318.501 193.4Z" fill="#263238"/>
<path d="M322.899 194.7C322.799 194.6 322.699 194.4 322.699 194.2V185C322.699 184.8 322.799 184.6 322.899 184.5C322.999 184.4 323.199 184.3 323.399 184.3C323.599 184.3 323.699 184.4 323.899 184.5C323.999 184.6 324.099 184.8 324.099 185V194.2C324.099 194.4 323.999 194.6 323.899 194.7C323.799 194.8 323.599 194.9 323.399 194.9C323.199 194.9 323.099 194.8 322.899 194.7Z" fill="#263238"/>
<path d="M330.498 193.8C330.398 193.7 330.398 193.7 330.398 193.6C330.398 193.4 330.498 193.3 330.598 193.1C330.698 192.9 330.898 192.8 331.098 192.8C331.198 192.8 331.198 192.8 331.298 192.9C332.098 193.5 333.098 193.9 334.198 193.9C334.898 193.9 335.498 193.8 335.998 193.5C336.498 193.2 336.698 192.8 336.698 192.3C336.698 192 336.698 191.8 336.598 191.6C336.498 191.4 336.398 191.3 336.298 191.1C336.098 191 335.998 190.8 335.798 190.8C335.598 190.7 335.298 190.6 334.998 190.5L332.898 189.8C332.098 189.5 331.498 189.2 331.198 188.8C330.798 188.4 330.598 187.8 330.598 187.1C330.598 186.5 330.798 186 331.098 185.6C331.398 185.2 331.898 184.8 332.398 184.6C332.998 184.4 333.598 184.3 334.298 184.3C334.998 184.3 335.698 184.4 336.298 184.6C336.898 184.8 337.398 185.1 337.698 185.4C337.798 185.5 337.898 185.6 337.898 185.8C337.898 186 337.798 186.1 337.698 186.2C337.598 186.3 337.498 186.4 337.298 186.4C337.198 186.4 337.098 186.4 336.998 186.3C336.698 186.1 336.298 185.9 335.898 185.8C335.398 185.6 334.998 185.6 334.398 185.6C333.698 185.6 333.098 185.7 332.598 186C332.198 186.3 331.898 186.7 331.898 187.2C331.898 187.6 331.998 187.9 332.198 188.1C332.398 188.3 332.798 188.5 333.298 188.7L335.398 189.4C335.798 189.5 336.198 189.7 336.498 189.8C336.798 190 337.098 190.1 337.298 190.4C337.498 190.6 337.698 190.9 337.798 191.2C337.898 191.5 337.998 191.9 337.998 192.3C337.998 193.3 337.598 194 336.898 194.5C336.198 195 335.198 195.3 333.998 195.3C332.698 195 331.498 194.6 330.498 193.8Z" fill="#263238"/>
<path d="M341.398 194.5C340.898 194.2 340.398 193.8 340.098 193.2C339.798 192.6 339.598 191.9 339.598 191.2C339.598 190.5 339.698 189.9 339.998 189.3C340.298 188.7 340.698 188.3 341.198 187.9C341.698 187.5 342.398 187.4 343.098 187.4C343.698 187.4 344.198 187.5 344.598 187.7C344.998 187.9 345.398 188.2 345.598 188.5C345.898 188.8 345.998 189.2 346.198 189.6C346.298 190 346.398 190.5 346.398 191C346.398 191.1 346.398 191.3 346.298 191.4C346.198 191.5 346.098 191.5 345.898 191.5H340.798C340.798 192.3 340.998 193 341.498 193.4C341.898 193.8 342.498 194.1 343.198 194.1C343.598 194.1 343.998 194 344.398 193.9C344.698 193.7 345.098 193.5 345.498 193.3C345.598 193.2 345.698 193.2 345.798 193.2C345.898 193.2 345.998 193.2 346.098 193.3C346.198 193.4 346.198 193.5 346.198 193.6C346.198 193.8 346.098 193.9 345.998 194C345.198 194.7 344.298 195 343.198 195C342.498 195 341.898 194.8 341.398 194.5ZM345.298 190.6C345.298 189.9 345.098 189.4 344.698 188.9C344.398 188.5 343.898 188.2 343.198 188.2C342.898 188.2 342.498 188.3 342.298 188.4C341.998 188.5 341.798 188.7 341.598 188.9C341.398 189.1 341.298 189.4 341.198 189.6C341.098 189.9 340.998 190.2 340.998 190.5H345.298V190.6Z" fill="#263238"/>
<path d="M348.501 194.7C348.401 194.6 348.301 194.4 348.301 194.2V188.1C348.301 187.9 348.401 187.8 348.501 187.6C348.601 187.5 348.801 187.4 349.001 187.4C349.201 187.4 349.301 187.5 349.501 187.6C349.601 187.7 349.701 187.9 349.701 188V188.9C349.801 188.4 350.101 188.1 350.401 187.8C350.801 187.5 351.201 187.3 351.701 187.3C351.901 187.3 352.001 187.4 352.101 187.5C352.201 187.6 352.201 187.8 352.201 187.9C352.201 188 352.201 188.2 352.101 188.3C352.001 188.4 351.901 188.5 351.701 188.5C351.001 188.5 350.501 188.7 350.201 189C349.801 189.3 349.701 189.8 349.701 190.4V194.2C349.701 194.4 349.601 194.5 349.501 194.7C349.401 194.8 349.201 194.9 349.001 194.9C348.801 194.9 348.601 194.8 348.501 194.7Z" fill="#263238"/>
<path d="M355.698 194.6C355.498 194.5 355.398 194.2 355.198 193.8L352.898 188.3C352.898 188.2 352.898 188.2 352.898 188.1C352.898 187.9 352.998 187.8 353.098 187.7C353.198 187.6 353.398 187.5 353.598 187.5C353.898 187.5 353.998 187.6 354.098 187.9L356.398 193.4L358.598 187.9C358.698 187.6 358.898 187.5 359.098 187.5C359.298 187.5 359.398 187.6 359.598 187.7C359.698 187.8 359.798 188 359.798 188.1C359.798 188.2 359.798 188.2 359.798 188.3L357.498 193.8C357.298 194.2 357.198 194.4 356.998 194.6C356.798 194.7 356.598 194.8 356.298 194.8C356.098 194.9 355.898 194.8 355.698 194.6Z" fill="#263238"/>
<path d="M362.601 194.5C362.101 194.2 361.601 193.8 361.301 193.2C361.001 192.6 360.801 191.9 360.801 191.2C360.801 190.5 360.901 189.9 361.201 189.3C361.501 188.7 361.901 188.3 362.401 187.9C362.901 187.5 363.601 187.4 364.301 187.4C364.901 187.4 365.401 187.5 365.801 187.7C366.201 187.9 366.601 188.2 366.801 188.5C367.101 188.8 367.201 189.2 367.401 189.6C367.501 190 367.601 190.5 367.601 191C367.601 191.1 367.601 191.3 367.501 191.4C367.401 191.5 367.301 191.5 367.101 191.5H362.001C362.001 192.3 362.201 193 362.701 193.4C363.101 193.8 363.701 194.1 364.401 194.1C364.801 194.1 365.201 194 365.601 193.9C365.901 193.7 366.301 193.5 366.701 193.3C366.801 193.2 366.901 193.2 367.001 193.2C367.101 193.2 367.201 193.2 367.301 193.3C367.401 193.4 367.401 193.5 367.401 193.6C367.401 193.8 367.301 193.9 367.201 194C366.401 194.7 365.501 195 364.401 195C363.801 195 363.201 194.8 362.601 194.5ZM366.601 190.6C366.601 189.9 366.401 189.4 366.001 188.9C365.701 188.5 365.201 188.2 364.501 188.2C364.201 188.2 363.801 188.3 363.601 188.4C363.301 188.5 363.101 188.7 362.901 188.9C362.701 189.1 362.601 189.4 362.501 189.6C362.401 189.9 362.301 190.2 362.301 190.5H366.601V190.6Z" fill="#263238"/>
<path d="M369.798 194.7C369.698 194.6 369.598 194.4 369.598 194.2V188.1C369.598 187.9 369.698 187.8 369.798 187.6C369.898 187.5 370.098 187.4 370.298 187.4C370.498 187.4 370.598 187.5 370.798 187.6C370.898 187.7 370.998 187.9 370.998 188V188.9C371.098 188.4 371.398 188.1 371.698 187.8C372.098 187.5 372.498 187.3 372.998 187.3C373.198 187.3 373.298 187.4 373.398 187.5C373.498 187.6 373.498 187.8 373.498 187.9C373.498 188 373.498 188.2 373.398 188.3C373.298 188.4 373.198 188.5 372.998 188.5C372.298 188.5 371.798 188.7 371.498 189C371.098 189.3 370.998 189.8 370.998 190.4V194.2C370.998 194.4 370.898 194.5 370.798 194.7C370.698 194.8 370.498 194.9 370.298 194.9C369.998 194.9 369.898 194.8 369.798 194.7Z" fill="#263238"/>
<path d="M379.598 194.6C379.498 194.5 379.398 194.3 379.398 194.1V185C379.398 184.8 379.498 184.6 379.598 184.5C379.698 184.4 379.898 184.3 380.098 184.3H385.598C385.798 184.3 385.898 184.4 385.998 184.5C386.098 184.6 386.198 184.8 386.198 184.9C386.198 185 386.098 185.2 385.998 185.3C385.898 185.4 385.798 185.5 385.598 185.5H380.898V188.8H385.298C385.498 188.8 385.598 188.9 385.698 189C385.798 189.1 385.898 189.2 385.898 189.4C385.898 189.6 385.798 189.7 385.698 189.8C385.598 189.9 385.398 190 385.298 190H380.898V193.6H385.798C385.998 193.6 386.098 193.7 386.198 193.8C386.298 193.9 386.398 194.1 386.398 194.2C386.398 194.4 386.298 194.5 386.198 194.6C386.098 194.7 385.998 194.8 385.798 194.8H380.198C379.898 194.9 379.698 194.8 379.598 194.6Z" fill="#263238"/>
<path d="M388.501 194.7C388.401 194.6 388.301 194.4 388.301 194.2V188.1C388.301 187.9 388.401 187.8 388.501 187.6C388.601 187.5 388.801 187.4 389.001 187.4C389.201 187.4 389.301 187.5 389.501 187.6C389.601 187.7 389.701 187.9 389.701 188V188.9C389.801 188.4 390.101 188.1 390.401 187.8C390.801 187.5 391.201 187.3 391.701 187.3C391.901 187.3 392.001 187.4 392.101 187.5C392.201 187.6 392.201 187.8 392.201 187.9C392.201 188 392.201 188.2 392.101 188.3C392.001 188.4 391.901 188.5 391.701 188.5C391.001 188.5 390.501 188.7 390.201 189C389.801 189.3 389.701 189.8 389.701 190.4V194.2C389.701 194.4 389.601 194.5 389.501 194.7C389.401 194.8 389.201 194.9 389.001 194.9C388.801 194.9 388.701 194.8 388.501 194.7Z" fill="#263238"/>
<path d="M393.899 194.7C393.799 194.6 393.699 194.4 393.699 194.2V188.1C393.699 187.9 393.799 187.8 393.899 187.6C393.999 187.5 394.199 187.4 394.399 187.4C394.599 187.4 394.699 187.5 394.899 187.6C394.999 187.7 395.099 187.9 395.099 188V188.9C395.199 188.4 395.499 188.1 395.799 187.8C396.199 187.5 396.599 187.3 397.099 187.3C397.299 187.3 397.399 187.4 397.499 187.5C397.599 187.6 397.599 187.8 397.599 187.9C397.599 188 397.599 188.2 397.499 188.3C397.399 188.4 397.299 188.5 397.099 188.5C396.399 188.5 395.899 188.7 395.599 189C395.199 189.3 395.099 189.8 395.099 190.4V194.2C395.099 194.4 394.999 194.5 394.899 194.7C394.799 194.8 394.599 194.9 394.399 194.9C394.199 194.9 393.999 194.8 393.899 194.7Z" fill="#263238"/>
<path d="M399.5 193.9C398.8 193.2 398.5 192.3 398.5 191.2C398.5 190.1 398.8 189.2 399.5 188.5C400.2 187.8 401.1 187.4 402.2 187.4C403.3 187.4 404.2 187.8 404.9 188.5C405.6 189.2 405.9 190.1 405.9 191.2C405.9 192.3 405.6 193.2 404.9 193.9C404.2 194.6 403.3 195 402.2 195C401.1 195 400.2 194.6 399.5 193.9ZM404 193.3C404.4 192.8 404.6 192.1 404.6 191.2C404.6 190.3 404.4 189.6 404 189.1C403.6 188.6 403 188.3 402.3 188.3C401.6 188.3 401 188.6 400.6 189.1C400.2 189.6 400 190.3 400 191.2C400 192.1 400.2 192.8 400.6 193.3C401 193.8 401.6 194.1 402.3 194.1C403 194.1 403.6 193.8 404 193.3Z" fill="#263238"/>
<path d="M407.798 194.7C407.698 194.6 407.598 194.4 407.598 194.2V188.1C407.598 187.9 407.698 187.8 407.798 187.6C407.898 187.5 408.098 187.4 408.298 187.4C408.498 187.4 408.598 187.5 408.798 187.6C408.898 187.7 408.998 187.9 408.998 188V188.9C409.098 188.4 409.398 188.1 409.698 187.8C410.098 187.5 410.498 187.3 410.998 187.3C411.198 187.3 411.298 187.4 411.398 187.5C411.498 187.6 411.498 187.8 411.498 187.9C411.498 188 411.498 188.2 411.398 188.3C411.298 188.4 411.198 188.5 410.998 188.5C410.298 188.5 409.798 188.7 409.498 189C409.098 189.3 408.998 189.8 408.998 190.4V194.2C408.998 194.4 408.898 194.5 408.798 194.7C408.698 194.8 408.498 194.9 408.298 194.9C408.098 194.9 407.898 194.8 407.798 194.7Z" fill="#263238"/>
<path d="M276.997 161.2C276.197 160.5 275.797 159.5 275.797 158.4C275.797 157.3 276.197 156.2 277.097 155.2C277.897 154.2 278.897 153.7 279.897 153.7C280.197 153.7 280.597 153.8 280.897 153.9C281.197 154 281.597 154.2 281.897 154.5C285.197 157.1 288.697 158.4 292.497 158.4C295.397 158.4 297.597 157.6 299.097 156.1C300.597 154.6 301.397 152.4 301.397 149.4C301.397 146.6 300.597 144.4 298.897 142.8C297.197 141.2 295.197 140.4 292.697 140.4C289.797 140.4 287.097 141.4 284.397 143.4C283.897 143.8 283.197 144 282.297 144C280.997 144 279.697 143.5 278.597 142.6C277.397 141.7 276.897 140.5 276.897 138.9V118C276.897 115.9 277.397 114.5 278.397 113.7C279.397 112.9 281.097 112.6 283.397 112.6H305.497C306.697 112.6 307.697 113 308.397 113.7C309.097 114.4 309.497 115.4 309.497 116.7C309.497 118 309.097 119 308.397 119.7C307.597 120.4 306.597 120.8 305.197 120.8H286.297L286.097 134.8L287.197 134.1C287.897 133.7 289.097 133.2 290.797 132.8C292.497 132.4 294.297 132.1 296.197 132.1C300.997 132.1 304.897 133.6 307.897 136.6C310.897 139.6 312.397 143.7 312.397 149C312.397 152.6 311.497 155.7 309.797 158.4C308.097 161.1 305.697 163.1 302.797 164.5C299.797 165.9 296.497 166.6 292.797 166.6C286.797 166.9 281.497 165 276.997 161.2Z" fill="#263238"/>
<path d="M331.296 165.6C328.896 164.6 326.996 163.3 325.496 161.6C323.996 159.9 322.696 157.9 321.696 155.5C320.696 153.1 319.996 150.6 319.596 148C319.196 145.4 318.996 142.5 318.996 139.5C318.996 136.5 319.196 133.7 319.596 131.1C319.996 128.5 320.696 126 321.696 123.6C322.696 121.2 323.896 119.2 325.496 117.5C326.996 115.8 328.996 114.5 331.296 113.5C333.696 112.5 336.396 112 339.396 112C342.396 112 344.996 112.5 347.296 113.4C349.596 114.4 351.596 115.7 353.096 117.3C354.596 119 355.896 121 356.896 123.3C357.896 125.7 358.596 128.2 359.096 130.8C359.496 133.4 359.696 136.3 359.696 139.3C359.696 142.3 359.496 145.2 359.096 147.8C358.696 150.4 357.996 152.9 356.996 155.3C355.996 157.7 354.696 159.7 353.196 161.4C351.696 163.1 349.696 164.4 347.396 165.4C345.096 166.4 342.396 166.9 339.396 166.9C336.396 167.1 333.696 166.6 331.296 165.6ZM343.896 157.1C345.096 156.1 345.996 154.7 346.596 152.9C347.196 151 347.596 149.1 347.796 147C347.996 144.9 348.096 142.4 348.096 139.6C348.096 137.3 347.996 135.4 347.896 133.7C347.796 132 347.496 130.3 347.096 128.6C346.696 126.9 346.196 125.5 345.596 124.4C344.996 123.3 344.096 122.4 342.996 121.8C341.896 121.1 340.596 120.8 339.096 120.8C337.896 120.8 336.796 121 335.796 121.5C334.796 121.9 334.096 122.6 333.396 123.5C332.796 124.4 332.196 125.3 331.796 126.4C331.396 127.5 330.996 128.8 330.796 130.3C330.596 131.8 330.396 133.3 330.296 134.7C330.196 136.2 330.196 137.8 330.196 139.7C330.196 141.6 330.196 143.2 330.296 144.7C330.396 146.2 330.496 147.7 330.796 149.2C330.996 150.7 331.396 152 331.796 153.1C332.196 154.2 332.796 155.2 333.396 156.1C333.996 157 334.796 157.6 335.796 158.1C336.796 158.6 337.896 158.8 339.096 158.8C341.196 158.5 342.696 158 343.896 157.1Z" fill="#263238"/>
<path d="M377.796 165.6C375.396 164.6 373.496 163.3 371.996 161.6C370.496 159.9 369.196 157.9 368.196 155.5C367.196 153.1 366.496 150.6 366.096 148C365.696 145.4 365.496 142.5 365.496 139.5C365.496 136.5 365.696 133.7 366.096 131.1C366.496 128.5 367.196 126 368.196 123.6C369.196 121.2 370.396 119.2 371.996 117.5C373.496 115.8 375.496 114.5 377.796 113.5C380.196 112.5 382.896 112 385.896 112C388.896 112 391.496 112.5 393.796 113.4C396.096 114.4 398.096 115.7 399.596 117.3C401.096 119 402.396 121 403.396 123.3C404.396 125.7 405.096 128.2 405.596 130.8C405.996 133.4 406.196 136.3 406.196 139.3C406.196 142.3 405.996 145.2 405.596 147.8C405.196 150.4 404.496 152.9 403.496 155.3C402.496 157.7 401.196 159.7 399.696 161.4C398.196 163.1 396.196 164.4 393.896 165.4C391.596 166.4 388.896 166.9 385.896 166.9C382.796 167.1 380.196 166.6 377.796 165.6ZM390.396 157.1C391.596 156.1 392.496 154.7 393.096 152.9C393.696 151 394.096 149.1 394.296 147C394.496 144.9 394.596 142.4 394.596 139.6C394.596 137.3 394.496 135.4 394.396 133.7C394.296 132 393.996 130.3 393.596 128.6C393.196 126.9 392.696 125.5 392.096 124.4C391.496 123.3 390.596 122.4 389.496 121.8C388.396 121.1 387.096 120.8 385.596 120.8C384.396 120.8 383.196 121 382.296 121.5C381.296 121.9 380.596 122.6 379.896 123.5C379.296 124.4 378.696 125.3 378.296 126.4C377.896 127.5 377.496 128.8 377.296 130.3C377.096 131.8 376.896 133.3 376.796 134.7C376.696 136.2 376.696 137.8 376.696 139.7C376.696 141.6 376.696 143.2 376.796 144.7C376.896 146.2 376.996 147.7 377.296 149.2C377.496 150.7 377.896 152 378.296 153.1C378.696 154.2 379.296 155.2 379.896 156.1C380.496 157 381.296 157.6 382.296 158.1C383.296 158.6 384.396 158.8 385.596 158.8C387.596 158.5 389.196 158 390.396 157.1Z" fill="#263238"/>
<path d="M113.301 264.6C113.301 264.6 122.801 262.7 131.001 269C139.201 275.3 145.401 291.3 148.601 313.6C151.801 336 153.601 345.6 172.501 348.8C191.301 351.9 236.601 350.7 263.601 350.1C290.601 349.5 289.401 324.3 266.701 321.8C244.101 319.3 228.401 325.3 204.801 320.1C181.201 314.9 225.801 308 259.701 313C293.601 318 308.701 319.3 326.901 317.4" stroke="#263238" stroke-width="2.5131" stroke-miterlimit="10" stroke-linecap="round" stroke-linejoin="round"/>
<path d="M113.301 231.1C113.301 231.1 131.601 231.2 136.601 250.1C141.601 268.9 143.501 295.3 144.101 316.1C144.701 336.8 145.401 354.4 169.201 359.5C193.101 364.5 257.801 362.6 275.401 358.9C293.001 355.1 312.501 338.2 298.001 334.4C283.501 330.6 263.401 334.4 271.001 339.4C278.501 344.4 298.601 343.2 322.501 340" stroke="#263238" stroke-width="2.5131" stroke-miterlimit="10" stroke-linecap="round" stroke-linejoin="round"/>
<path d="M117.001 296.7C117.001 296.7 128.201 295.7 132.601 308.4C137.001 321 131.601 324 134.101 330.3C136.501 336.6 151.901 330.7 151.801 336C151.701 340.8 145.701 342.1 110.701 340.1C65.0008 337.4 34.8008 344.5 37.3008 348.9C39.7008 353.3 76.2008 349.9 67.5008 356.7C58.8008 363.5 37.3008 355.7 20.8008 355.2C4.30078 354.7 1.30078 358.6 1.30078 358.6" stroke="#263238" stroke-width="2.5131" stroke-miterlimit="10" stroke-linecap="round" stroke-linejoin="round"/>
<path d="M118.401 118.1H8.40078C6.40078 118.1 4.80078 119.7 4.80078 121.7V330C4.80078 332 6.40078 333.6 8.40078 333.6H118.301C120.301 333.6 121.901 332 121.901 330V121.7C121.901 119.7 120.301 118.1 118.401 118.1Z" fill="#263238" stroke="#263238" stroke-width="1.2565" stroke-miterlimit="10" stroke-linecap="round" stroke-linejoin="round"/>
<path d="M119.099 150.4H7.69922V232.9H119.099V150.4Z" fill="#616161"/>
<path d="M119.099 246.3H7.69922V328.8H119.099V246.3Z" fill="#616161"/>
<path d="M105.2 256.3H42V320.8H105.2V256.3Z" fill="#00FBF6" stroke="#263238" stroke-width="1.2565" stroke-miterlimit="10" stroke-linecap="round" stroke-linejoin="round"/>
<path d="M105.2 159.6H42V175.5H105.2V159.6Z" fill="#00FBF6" stroke="#263238" stroke-width="1.2565" stroke-miterlimit="10" stroke-linecap="round" stroke-linejoin="round"/>
<path d="M105.2 190.2H42V206.1H105.2V190.2Z" fill="#00FBF6" stroke="#263238" stroke-width="1.2565" stroke-miterlimit="10" stroke-linecap="round" stroke-linejoin="round"/>
<path d="M103.101 152.2L101.901 155.6H45.9008L44.7008 152.2H32.8008V166.9H44.7008L45.9008 163.6H101.901L103.101 166.9H116.601V152.2H103.101Z" fill="#263238" stroke="#263238" stroke-width="1.2565" stroke-miterlimit="10" stroke-linecap="round" stroke-linejoin="round"/>
<path d="M103.101 168.3L101.901 171.6H45.9008L44.7008 168.3H32.8008V183H44.7008L45.9008 179.6H101.901L103.101 183H116.601V168.3H103.101Z" fill="#263238" stroke="#263238" stroke-width="1.2565" stroke-miterlimit="10" stroke-linecap="round" stroke-linejoin="round"/>
<path d="M103.101 184.3L101.901 187.7H45.9008L44.7008 184.3H32.8008V199H44.7008L45.9008 195.7H101.901L103.101 199H116.601V184.3H103.101Z" fill="#263238" stroke="#263238" stroke-width="1.2565" stroke-miterlimit="10" stroke-linecap="round" stroke-linejoin="round"/>
<path d="M103.101 200.4L101.901 203.7H45.9008L44.7008 200.4H32.8008V215.1H44.7008L45.9008 211.7H101.901L103.101 215.1H116.601V200.4H103.101Z" fill="#263238" stroke="#263238" stroke-width="1.2565" stroke-miterlimit="10" stroke-linecap="round" stroke-linejoin="round"/>
<path d="M103.101 216.4L101.901 219.8H45.9008L44.7008 216.4H32.8008V231.1H44.7008L45.9008 227.8H101.901L103.101 231.1H116.601V216.4H103.101Z" fill="#263238" stroke="#263238" stroke-width="1.2565" stroke-miterlimit="10" stroke-linecap="round" stroke-linejoin="round"/>
<path d="M103.101 248.5L101.901 251.9H45.9008L44.7008 248.5H32.8008V263.3H44.7008L45.9008 259.9H101.901L103.101 263.3H116.601V248.5H103.101Z" fill="#263238" stroke="#263238" stroke-width="1.2565" stroke-miterlimit="10" stroke-linecap="round" stroke-linejoin="round"/>
<path d="M103.101 264.6L101.901 267.9H45.9008L44.7008 264.6H32.8008V279.3H44.7008L45.9008 276H101.901L103.101 279.3H116.601V264.6H103.101Z" fill="#263238" stroke="#263238" stroke-width="1.2565" stroke-miterlimit="10" stroke-linecap="round" stroke-linejoin="round"/>
<path d="M103.101 280.6L101.901 284H45.9008L44.7008 280.6H32.8008V295.4H44.7008L45.9008 292H101.901L103.101 295.4H116.601V280.6H103.101Z" fill="#263238" stroke="#263238" stroke-width="1.2565" stroke-miterlimit="10" stroke-linecap="round" stroke-linejoin="round"/>
<path d="M103.101 296.7L101.901 300H45.9008L44.7008 296.7H32.8008V311.4H44.7008L45.9008 308.1H101.901L103.101 311.4H116.601V296.7H103.101Z" fill="#263238" stroke="#263238" stroke-width="1.2565" stroke-miterlimit="10" stroke-linecap="round" stroke-linejoin="round"/>
<path d="M103.101 312.8L101.901 316.1H45.9008L44.7008 312.8H32.8008V327.5H44.7008L45.9008 324.1H101.901L103.101 327.5H116.601V312.8H103.101Z" fill="#263238" stroke="#263238" stroke-width="1.2565" stroke-miterlimit="10" stroke-linecap="round" stroke-linejoin="round"/>
<path d="M116.502 235.4H9.90234V245.5H116.502V235.4Z" fill="white"/>
<path d="M18.9008 240.4C18.9008 238.8 17.6008 237.6 16.1008 237.6C14.6008 237.6 13.3008 238.9 13.3008 240.4C13.3008 241.9 14.6008 243.2 16.1008 243.2C17.6008 243.2 18.9008 241.9 18.9008 240.4Z" fill="#263238" stroke="#263238" stroke-width="1.2565" stroke-miterlimit="10" stroke-linecap="round" stroke-linejoin="round"/>
<path d="M25.4016 243.2C26.948 243.2 28.2016 241.946 28.2016 240.4C28.2016 238.854 26.948 237.6 25.4016 237.6C23.8552 237.6 22.6016 238.854 22.6016 240.4C22.6016 241.946 23.8552 243.2 25.4016 243.2Z" fill="#00FBF6" stroke="#263238" stroke-width="1.2565" stroke-miterlimit="10" stroke-linecap="round" stroke-linejoin="round"/>
<path d="M37.6 240.4C37.6 238.8 36.3 237.6 34.8 237.6C33.2 237.6 32 238.9 32 240.4C32 241.9 33.3 243.2 34.8 243.2C36.4 243.2 37.6 241.9 37.6 240.4Z" fill="#263238" stroke="#263238" stroke-width="1.2565" stroke-miterlimit="10" stroke-linecap="round" stroke-linejoin="round"/>
<path d="M116.502 139.1H9.90234V149.2H116.502V139.1Z" fill="white"/>
<path d="M18.9008 144C18.9008 142.4 17.6008 141.2 16.1008 141.2C14.6008 141.2 13.3008 142.5 13.3008 144C13.3008 145.5 14.6008 146.8 16.1008 146.8C17.6008 146.8 18.9008 145.6 18.9008 144Z" fill="white" stroke="#263238" stroke-width="1.2565" stroke-miterlimit="10" stroke-linecap="round" stroke-linejoin="round"/>
<path d="M28.2992 144C28.2992 142.4 26.9992 141.2 25.4992 141.2C23.9992 141.2 22.6992 142.5 22.6992 144C22.6992 145.5 23.9992 146.8 25.4992 146.8C26.9992 146.8 28.2992 145.6 28.2992 144Z" fill="#00FBF6" stroke="#263238" stroke-width="1.2565" stroke-miterlimit="10" stroke-linecap="round" stroke-linejoin="round"/>
<path d="M37.6 144C37.6 142.4 36.3 141.2 34.8 141.2C33.2 141.2 32 142.5 32 144C32 145.5 33.3 146.8 34.8 146.8C36.4 146.8 37.6 145.6 37.6 144Z" fill="white" stroke="#263238" stroke-width="1.2565" stroke-miterlimit="10" stroke-linecap="round" stroke-linejoin="round"/>
<path d="M116.502 126.2H9.90234V136.3H116.502V126.2Z" fill="white"/>
<path d="M18.9008 131.1C18.9008 129.5 17.6008 128.3 16.1008 128.3C14.6008 128.3 13.3008 129.6 13.3008 131.1C13.3008 132.7 14.6008 133.9 16.1008 133.9C17.6008 133.9 18.9008 132.6 18.9008 131.1Z" fill="#00FBF6" stroke="#263238" stroke-width="1.2565" stroke-miterlimit="10" stroke-linecap="round" stroke-linejoin="round"/>
<path d="M28.2992 131.1C28.2992 129.5 26.9992 128.3 25.4992 128.3C23.9992 128.3 22.6992 129.6 22.6992 131.1C22.6992 132.7 23.9992 133.9 25.4992 133.9C26.9992 133.9 28.2992 132.6 28.2992 131.1Z" fill="#263238" stroke="#263238" stroke-width="1.2565" stroke-miterlimit="10" stroke-linecap="round" stroke-linejoin="round"/>
<path d="M37.6 131.1C37.6 129.5 36.3 128.3 34.8 128.3C33.2 128.3 32 129.6 32 131.1C32 132.7 33.3 133.9 34.8 133.9C36.4 133.9 37.6 132.6 37.6 131.1Z" fill="#263238" stroke="#263238" stroke-width="1.2565" stroke-miterlimit="10" stroke-linecap="round" stroke-linejoin="round"/>
<path d="M27.7992 152.5H10.1992V160H27.7992V152.5Z" fill="#263238" stroke="#263238" stroke-width="1.2565" stroke-miterlimit="10" stroke-linecap="round" stroke-linejoin="round"/>
<path d="M27.7992 168.8H10.1992V176.3H27.7992V168.8Z" fill="#263238" stroke="#263238" stroke-width="1.2565" stroke-miterlimit="10" stroke-linecap="round" stroke-linejoin="round"/>
<path d="M27.7992 185.1H10.1992V192.6H27.7992V185.1Z" fill="#00FBF6" stroke="#263238" stroke-width="1.2565" stroke-miterlimit="10" stroke-linecap="round" stroke-linejoin="round"/>
<path d="M27.7992 201.5H10.1992V209H27.7992V201.5Z" fill="#00FBF6" stroke="#263238" stroke-width="1.2565" stroke-miterlimit="10" stroke-linecap="round" stroke-linejoin="round"/>
<path d="M27.7992 217.8H10.1992V225.3H27.7992V217.8Z" fill="#00FBF6" stroke="#263238" stroke-width="1.2565" stroke-miterlimit="10" stroke-linecap="round" stroke-linejoin="round"/>
<path d="M27.7992 248.4H10.1992V255.9H27.7992V248.4Z" fill="#00FBF6" stroke="#263238" stroke-width="1.2565" stroke-miterlimit="10" stroke-linecap="round" stroke-linejoin="round"/>
<path d="M27.7992 264.7H10.1992V272.2H27.7992V264.7Z" fill="#263238" stroke="#263238" stroke-width="1.2565" stroke-miterlimit="10" stroke-linecap="round" stroke-linejoin="round"/>
<path d="M27.7992 281H10.1992V288.5H27.7992V281Z" fill="#00FBF6" stroke="#263238" stroke-width="1.2565" stroke-miterlimit="10" stroke-linecap="round" stroke-linejoin="round"/>
<path d="M27.7992 297.4H10.1992V304.9H27.7992V297.4Z" fill="#263238" stroke="#263238" stroke-width="1.2565" stroke-miterlimit="10" stroke-linecap="round" stroke-linejoin="round"/>
<path d="M27.7992 313.7H10.1992V321.2H27.7992V313.7Z" fill="#00FBF6" stroke="#263238" stroke-width="1.2565" stroke-miterlimit="10" stroke-linecap="round" stroke-linejoin="round"/>
<path d="M175.1 72.4C175.1 72.4 158.2 76.7 153.6 83.1C148.9 89.5 130 133.1 130 133.1C130 133.1 123.8 140 130.5 146.6C137.2 153.3 150.5 155.7 155.4 149.8C160.3 143.9 167.5 116.1 168.5 112.9C169.5 109.7 176.9 82.6 177.6 81.1C178.2 79.7 178.9 73.3 175.1 72.4Z" fill="#BDBDBD" stroke="#263238" stroke-width="1.2565" stroke-miterlimit="10" stroke-linecap="round" stroke-linejoin="round"/>
<path d="M175.101 72.4C175.101 72.4 158.201 76.7 153.601 83.1C150.801 87 142.701 104.5 136.801 117.7C139.701 117.1 151.701 115.3 165.701 122.4C167.101 117.7 168.001 114 168.401 112.9C169.401 109.7 176.801 82.6 177.501 81.1C178.201 79.7 178.901 73.3 175.101 72.4Z" fill="#263238" stroke="#263238" stroke-width="1.2565" stroke-miterlimit="10" stroke-linecap="round" stroke-linejoin="round"/>
<path d="M224.499 15.6C224.499 15.6 229.199 18.1 231.199 22.7C233.199 27.4 233.199 34.5 233.199 34.5C233.199 34.5 264.699 33.5 276.799 33.3C288.899 33.1 296.999 36 297.199 41.9C297.399 47.8 294.699 59.4 288.099 63.8C281.399 68.2 260.799 61.1 250.199 58.1C239.599 55.1 235.899 56.1 228.299 55.1C220.699 54.1 218.399 51.2 217.199 46.5C215.999 41.8 218.399 33 218.399 25.8C218.299 18.8 217.299 14.1 224.499 15.6Z" fill="#BDBDBD" stroke="#263238" stroke-width="1.2565" stroke-miterlimit="10" stroke-linecap="round" stroke-linejoin="round"/>
<path d="M270.501 45.9C270.501 45.9 266.101 57.2 257.901 63.4C252.101 67.8 244.201 70.3 240.201 71.4C226.001 67.4 205.901 65.5 194.201 68.1C194.201 68.1 177.801 72 175.001 72.4C172.201 72.8 165.401 95.6 164.001 111.2C162.601 126.9 167.201 165.7 167.201 168.5C167.201 171.3 169.001 218.7 171.801 231.9C174.601 245.1 177.901 262.9 178.201 265.4C178.601 267.9 181.001 286.4 181.001 292.5C181.001 298.6 178.201 313.2 178.201 313.2C178.201 313.2 165.401 321.7 160.401 326.7C155.401 331.7 164.101 336.9 170.401 338.1C181.101 340.1 193.901 329.6 193.901 329.6C193.901 329.6 208.001 324 208.101 323.9C211.901 322.4 213.001 318.3 213.101 314.7C213.301 305.9 213.501 297.1 213.801 288.3C216.001 297.6 217.901 307.1 219.301 316.6C219.901 320.5 220.501 324.6 222.801 327.7C224.001 329.3 225.901 331.2 227.701 332.1C229.101 332.8 230.601 332.6 232.101 333.4C234.701 334.9 235.801 338.2 238.401 339.8C243.401 343 250.701 344.7 256.601 344.5C256.601 344.5 270.801 345.2 271.601 337.4C272.301 329.6 253.101 316.7 253.101 316.7C253.101 316.7 250.301 264.7 248.101 247.6C246.001 230.5 240.301 202.7 240.301 190.6C240.301 178.5 246.001 121.5 246.001 121.5C246.001 121.5 246.601 120 247.501 117.6C247.801 117.4 248.101 117.3 248.401 117.1C256.501 112.4 279.201 94.2 286.601 82.6C293.701 71.5 296.201 50.7 296.401 44.6" fill="#BDBDBD"/>
<path d="M270.501 45.9C270.501 45.9 266.101 57.2 257.901 63.4C252.101 67.8 244.201 70.3 240.201 71.4C226.001 67.4 205.901 65.5 194.201 68.1C194.201 68.1 177.801 72 175.001 72.4C172.201 72.8 165.401 95.6 164.001 111.2C162.601 126.9 167.201 165.7 167.201 168.5C167.201 171.3 169.001 218.7 171.801 231.9C174.601 245.1 177.901 262.9 178.201 265.4C178.601 267.9 181.001 286.4 181.001 292.5C181.001 298.6 178.201 313.2 178.201 313.2C178.201 313.2 165.401 321.7 160.401 326.7C155.401 331.7 164.101 336.9 170.401 338.1C181.101 340.1 193.901 329.6 193.901 329.6C193.901 329.6 208.001 324 208.101 323.9C211.901 322.4 213.001 318.3 213.101 314.7C213.301 305.9 213.501 297.1 213.801 288.3C216.001 297.6 217.901 307.1 219.301 316.6C219.901 320.5 220.501 324.6 222.801 327.7C224.001 329.3 225.901 331.2 227.701 332.1C229.101 332.8 230.601 332.6 232.101 333.4C234.701 334.9 235.801 338.2 238.401 339.8C243.401 343 250.701 344.7 256.601 344.5C256.601 344.5 270.801 345.2 271.601 337.4C272.301 329.6 253.101 316.7 253.101 316.7C253.101 316.7 250.301 264.7 248.101 247.6C246.001 230.5 240.301 202.7 240.301 190.6C240.301 178.5 246.001 121.5 246.001 121.5C246.001 121.5 246.601 120 247.501 117.6C247.801 117.4 248.101 117.3 248.401 117.1C256.501 112.4 279.201 94.2 286.601 82.6C293.701 71.5 296.201 50.7 296.401 44.6" stroke="#263238" stroke-width="1.2565" stroke-miterlimit="10" stroke-linecap="round" stroke-linejoin="round"/>
<path d="M271.598 337.4C272.298 329.6 253.098 316.7 253.098 316.7C253.098 316.7 252.898 312.7 252.498 306.6C240.398 309.5 228.898 310.6 218.398 310.6C218.698 312.6 219.098 314.6 219.398 316.6C219.998 320.5 220.598 324.6 222.898 327.7C224.098 329.3 225.998 331.2 227.798 332.1C229.198 332.8 230.698 332.6 232.198 333.4C234.798 334.9 235.898 338.2 238.498 339.8C243.498 343 250.798 344.7 256.698 344.5C256.698 344.5 270.898 345.3 271.598 337.4Z" fill="#263238" stroke="#263238" stroke-width="1.2565" stroke-miterlimit="10" stroke-linecap="round" stroke-linejoin="round"/>
<path d="M208.198 323.9C211.998 322.4 213.098 318.3 213.198 314.7C213.198 313.3 213.298 311.9 213.298 310.6C198.998 310.1 187.098 307.7 179.598 305.8C178.898 310 178.298 313.3 178.298 313.3C178.298 313.3 165.498 321.8 160.498 326.8C155.498 331.8 164.198 337 170.498 338.2C181.198 340.2 193.998 329.7 193.998 329.7C193.998 329.7 207.998 323.9 208.198 323.9Z" fill="#263238" stroke="#263238" stroke-width="1.2565" stroke-miterlimit="10" stroke-linecap="round" stroke-linejoin="round"/>
<path d="M271.598 337.4C271.598 337.3 271.598 337.2 271.598 337C269.398 338.7 265.998 340.4 260.998 341.3C249.698 343.3 239.498 337.5 236.698 335C233.898 332.5 232.198 330.5 227.898 327.7C223.598 324.9 219.798 318.2 219.798 318.2L219.598 318.4C220.098 321.7 220.898 324.9 222.798 327.5C223.998 329.1 225.898 331 227.698 331.9C229.098 332.6 230.598 332.4 232.098 333.2C234.698 334.7 235.798 338 238.398 339.6C243.398 342.8 250.698 344.5 256.598 344.3C256.698 344.5 270.898 345.3 271.598 337.4Z" fill="white" stroke="#263238" stroke-width="1.2565" stroke-miterlimit="10" stroke-linecap="round" stroke-linejoin="round"/>
<path d="M208.201 323.9C211.501 322.6 212.801 319.3 213.101 316.1C209.801 318.1 202.201 322.5 197.401 324.4C191.101 326.9 186.901 334.4 174.601 334.4C165.901 334.4 161.101 331 159.001 329C157.901 333.2 165.001 337.2 170.301 338.2C181.001 340.2 193.801 329.7 193.801 329.7C193.801 329.7 208.001 323.9 208.201 323.9Z" fill="white" stroke="#263238" stroke-width="1.2565" stroke-miterlimit="10" stroke-linecap="round" stroke-linejoin="round"/>
<path d="M254.498 65.7C249.298 68.7 243.598 70.5 240.298 71.4C226.098 67.4 205.998 65.5 194.298 68.1C194.298 68.1 177.898 72 175.098 72.4C172.298 72.8 165.498 95.6 164.098 111.2C163.198 120.9 164.598 139.4 165.898 152.8C195.598 163.7 227.198 159.9 242.698 157C244.298 139.2 245.998 121.6 245.998 121.6C245.998 121.6 246.598 120.1 247.498 117.7C247.798 117.5 248.098 117.4 248.398 117.2C253.898 114 266.098 104.6 275.698 95.2C256.498 89.5 254.098 74.4 254.498 65.7Z" fill="#263238" stroke="#263238" stroke-width="1.2565" stroke-miterlimit="10" stroke-linecap="round" stroke-linejoin="round"/>
<path d="M226.898 82.7C226.898 76.6 223.798 71.2 218.798 67.5C209.698 66.6 200.798 66.7 194.298 68.1C194.298 68.1 189.798 69.2 185.098 70.3C181.998 73.7 180.098 78 180.098 82.7C180.098 93.8 190.598 102.8 203.498 102.8C216.398 102.8 226.898 93.8 226.898 82.7Z" fill="#616161" stroke="#263238" stroke-width="1.2565" stroke-miterlimit="10" stroke-linecap="round" stroke-linejoin="round"/>
<path d="M219.9 318.3C223 319.4 228.6 321 236.6 320.6C248.9 320.1 253.2 316.7 253.2 316.7C253.2 316.7 250.4 264.7 248.2 247.6C246.1 230.5 240.4 202.7 240.4 190.6C240.4 183.5 242.4 160.7 244 143.3C243.7 143.3 243.5 143.4 243.2 143.4C234.5 144.4 226.9 137.5 227.2 128.7L227.5 117.3C227.5 117.3 216.3 118.4 199.7 116.5C183.1 114.6 166 109 166 109L164.2 109.6C164.1 110.1 164.1 110.7 164 111.2C162.6 126.9 167.2 165.7 167.2 168.5C167.2 171.3 169 218.7 171.8 231.9C174.6 245.1 177.9 262.9 178.2 265.4C178.6 267.9 181 286.4 181 292.5C181 298.4 178.3 312.6 178.2 313.1C180.3 313.8 184.8 315.1 192.9 317.4C205.2 320.9 213.1 316.7 213.1 316.7C213.1 312.4 213.8 288.2 213.8 288.2C213.8 288.2 218.4 308.8 219.9 318.3Z" fill="white" stroke="#263238" stroke-width="1.2565" stroke-miterlimit="10" stroke-linecap="round" stroke-linejoin="round"/>
<path d="M179.199 124.1L211.199 129.4V149.1L193.199 167.1L178.699 149.5L179.199 124.1Z" stroke="#263238" stroke-width="1.2565" stroke-miterlimit="10" stroke-linecap="round" stroke-linejoin="round"/>
<path d="M202.3 235C200 222 198.3 209.2 198.3 199.9L185.5 191.4" stroke="#263238" stroke-width="1.2565" stroke-miterlimit="10" stroke-linecap="round" stroke-linejoin="round"/>
<path d="M213.9 288.3C213.9 288.3 208.5 267.4 204 244.6" stroke="#263238" stroke-width="1.2565" stroke-miterlimit="10" stroke-linecap="round" stroke-linejoin="round"/>
<path d="M223.398 177.8C223.698 178.9 224.098 180 224.698 181.1C228.598 188.1 234.298 189 234.298 189L235.198 170.6" stroke="#263238" stroke-width="1.2565" stroke-miterlimit="10" stroke-linecap="round" stroke-linejoin="round"/>
<path d="M224.798 167.1C224.798 167.1 223.898 168.8 223.398 171.3" stroke="#263238" stroke-width="1.2565" stroke-miterlimit="10" stroke-linecap="round" stroke-linejoin="round"/>
<path d="M240.5 223.1C241 225.5 241.4 227.9 241.9 230.2" stroke="#263238" stroke-width="1.2565" stroke-miterlimit="10" stroke-linecap="round" stroke-linejoin="round"/>
<path d="M234.398 189C234.398 189 236.698 202.5 239.298 216.7" stroke="#263238" stroke-width="1.2565" stroke-miterlimit="10" stroke-linecap="round" stroke-linejoin="round"/>
<path d="M192.199 60.6L191.999 71.1C191.999 71.1 188.399 74 187.699 81.6C186.999 89.2 194.199 96.3 202.399 96.3C210.499 96.3 217.599 90 218.899 84.2C220.199 78.4 218.499 70.1 218.499 70.1L217.999 57.4C217.999 57.4 209.999 62.5 202.399 61C194.799 59.6 192.599 56.8 192.599 56.8L192.199 60.6Z" fill="#BDBDBD" stroke="#263238" stroke-width="1.2565" stroke-miterlimit="10" stroke-linecap="round" stroke-linejoin="round"/>
<path d="M186.598 33.1C186.598 33.1 186.098 39.1 187.398 40.6C188.698 42.1 190.498 43.2 190.798 41.9C191.098 40.6 191.298 33.8 191.598 32.3C191.898 30.9 186.698 29.1 186.598 33.1Z" fill="#BDBDBD" stroke="#263238" stroke-width="1.2565" stroke-miterlimit="10" stroke-linecap="round" stroke-linejoin="round"/>
<path d="M189.699 33.1C189.699 33.1 188.199 45.1 188.199 50.9C188.199 56.7 185.899 58.9 193.199 62.7C200.499 66.5 206.699 67 211.699 65.2C216.699 63.4 219.499 59.2 219.699 55.7C219.999 52.2 219.999 46.7 219.999 46.7C219.999 46.7 226.999 40.4 225.499 35.7C223.999 30.9 220.699 37 220.699 37C220.699 37 222.999 30.7 222.699 24.2C222.399 17.7 217.399 16.9 215.399 16.9C213.399 16.9 201.099 13.1 195.299 16.9C189.699 20.5 189.699 33.1 189.699 33.1Z" fill="#BDBDBD" stroke="#263238" stroke-width="1.2565" stroke-miterlimit="10" stroke-linecap="round" stroke-linejoin="round"/>
<path d="M220.8 36.8C220.8 36.8 223.1 30.5 222.8 24C222.5 17.5 217.5 16.7 215.5 16.7H215.4C214.3 18.5 213 21.2 213 21.2L214 21.7C214 21.7 213 27.2 215 28C217 28.8 216 30.5 216 33.5C216 36.5 217.8 38.8 218.8 38.8C219.6 38.8 220.8 36.8 221.3 35.9C221 36.4 220.8 36.8 220.8 36.8Z" fill="#263238" stroke="#263238" stroke-width="1.2565" stroke-miterlimit="10" stroke-linecap="round" stroke-linejoin="round"/>
<path d="M200.999 37.5C200.999 37.5 198.899 39.4 199.899 40.9C200.899 42.4 204.399 43.2 205.399 41.4C206.399 39.6 205.199 38 204.799 37.7" stroke="#263238" stroke-width="1.2565" stroke-miterlimit="10" stroke-linecap="round" stroke-linejoin="round"/>
<path d="M198.698 35.6C198.698 36.6 198.298 37.4 197.798 37.4C197.298 37.4 196.898 36.6 196.898 35.6C196.898 34.6 197.298 33.8 197.798 33.8C198.298 33.8 198.698 34.6 198.698 35.6Z" fill="#263238"/>
<path d="M209.499 36.1C209.499 37.1 209.099 37.9 208.599 37.9C208.099 37.9 207.699 37.1 207.699 36.1C207.699 35.1 208.099 34.3 208.599 34.3C209.099 34.3 209.499 35.1 209.499 36.1Z" fill="#263238"/>
<path d="M206.898 31.2C206.898 31.2 210.298 28.9 213.598 32.5" stroke="#263238" stroke-width="1.2565" stroke-miterlimit="10" stroke-linecap="round" stroke-linejoin="round"/>
<path d="M201.699 47.2C201.699 47.2 200.299 46.4 198.899 47.1C197.499 47.7 197.299 48.8 197.299 48.8C197.299 48.8 195.199 50.5 197.399 51.2C199.599 51.9 204.399 51.9 205.599 51.8C206.799 51.7 207.199 50.5 207.199 49.7C207.199 49 206.699 48.7 206.699 48.7C206.699 48.7 204.999 45.9 201.699 47.2Z" fill="#666666" stroke="#263238" stroke-width="0.9227" stroke-miterlimit="10" stroke-linecap="round" stroke-linejoin="round"/>
<path d="M196.801 49.4C196.801 49.4 201.301 48.5 206.901 50" stroke="#263238" stroke-width="1.0733" stroke-miterlimit="10" stroke-linecap="round" stroke-linejoin="round"/>
<path d="M185.498 19.3L212.298 23.1C212.298 23.1 223.598 20.1 224.598 17.8C225.598 15.5 221.798 4.3 219.798 1.5C217.798 -1.3 198.498 3.5 192.498 4.5C186.498 5.5 181.998 7 182.198 10C182.498 13 185.498 19.3 185.498 19.3Z" fill="#00FBF6" stroke="#263238" stroke-width="1.2565" stroke-miterlimit="10" stroke-linecap="round" stroke-linejoin="round"/>
<path d="M185.499 19.3C185.499 19.3 170.199 31.8 169.999 33.1C169.699 34.4 192.299 34.9 199.299 33.4C206.299 31.9 212.299 23.1 212.299 23.1L185.499 19.3Z" fill="white" stroke="#263238" stroke-width="1.2565" stroke-miterlimit="10" stroke-linecap="round" stroke-linejoin="round"/>
<path d="M168.8 185.4L210.8 160.8C213.4 162.7 217 163.1 220 161.3C223.3 159.3 224.8 155.4 223.8 151.8L215 157L213 153.5L221.8 148.4C219.2 145.7 215 145.1 211.7 147C208.7 148.7 207.2 152 207.7 155.2L165.7 179.8C163.1 177.9 159.5 177.5 156.5 179.3C153.2 181.3 151.7 185.2 152.7 188.8L161.2 183.8L163.2 187.3L154.7 192.3C157.3 195 161.5 195.6 164.8 193.7C167.7 191.9 169.2 188.6 168.8 185.4Z" fill="#00FBF6" stroke="#263238" stroke-width="1.2565" stroke-miterlimit="10" stroke-linecap="round" stroke-linejoin="round"/>
<path d="M204.497 167.1C204.497 167.1 209.697 170.8 209.697 174.2C209.697 177.6 203.497 181.3 199.397 181.6C195.197 181.8 194.497 177.2 195.197 174.7C195.897 172.3 204.497 167.1 204.497 167.1Z" fill="#BDBDBD" stroke="#263238" stroke-width="1.2565" stroke-miterlimit="10" stroke-linecap="round" stroke-linejoin="round"/>
<path d="M150.299 136.3C150.299 136.3 178.899 152.3 182.799 151.8C186.699 151.3 192.199 147.9 195.099 148.8C198.099 149.8 206.199 162.3 206.899 164.6C207.599 166.8 200.999 174.7 199.499 175.9C197.999 177.1 193.299 182.1 192.399 182.6C191.399 183.1 184.999 188.8 181.799 188.8C178.599 188.8 173.199 186.3 172.699 185.1C172.199 183.9 173.399 182.1 173.399 182.1L158.399 175.2C158.399 175.2 129.799 159.7 124.899 151.8C119.999 143.9 132.299 129.9 132.299 129.9" fill="#BDBDBD"/>
<path d="M150.299 136.3C150.299 136.3 178.899 152.3 182.799 151.8C186.699 151.3 192.199 147.9 195.099 148.8C198.099 149.8 206.199 162.3 206.899 164.6C207.599 166.8 200.999 174.7 199.499 175.9C197.999 177.1 193.299 182.1 192.399 182.6C191.399 183.1 184.999 188.8 181.799 188.8C178.599 188.8 173.199 186.3 172.699 185.1C172.199 183.9 173.399 182.1 173.399 182.1L158.399 175.2C158.399 175.2 129.799 159.7 124.899 151.8C119.999 143.9 132.299 129.9 132.299 129.9" stroke="#263238" stroke-width="1.2565" stroke-miterlimit="10" stroke-linecap="round" stroke-linejoin="round"/>
<path d="M183.398 175C183.398 175 186.398 175.2 186.798 178.4C187.298 181.6 186.098 187.3 186.098 187.3" stroke="#263238" stroke-width="1.2565" stroke-miterlimit="10" stroke-linecap="round" stroke-linejoin="round"/>
<path d="M189 170.3C189 170.3 192.4 170.5 192.4 173.7C192.4 176.9 192.4 182.6 192.4 182.6" stroke="#263238" stroke-width="1.2565" stroke-miterlimit="10" stroke-linecap="round" stroke-linejoin="round"/>
<path d="M192.699 161.4C192.699 161.4 199.099 166.1 199.599 168.8C200.099 171.5 199.599 175.9 199.599 175.9" stroke="#263238" stroke-width="1.2565" stroke-miterlimit="10" stroke-linecap="round" stroke-linejoin="round"/>
<path d="M221.299 144.5C222.699 144.5 226.499 135 226.499 131.4C226.499 127.8 228.199 101.6 231.999 89.4C234.699 80.7 237.099 73.9 238.199 70.8C235.299 70.1 232.199 69.4 228.999 68.8C227.099 74.6 221.299 92.7 218.899 104.2C215.999 118 216.799 134.5 216.999 135.9C217.199 137.4 219.799 144.5 221.299 144.5Z" fill="white" stroke="#263238" stroke-width="1.2565" stroke-miterlimit="10" stroke-linecap="round" stroke-linejoin="round"/>
<path d="M225.398 125.3L217.198 124.2C216.498 124.1 216.098 123.5 216.098 122.8L216.998 116.2C217.098 115.5 217.698 115.1 218.398 115.1L226.598 116.2C227.298 116.3 227.698 116.9 227.698 117.6L226.798 124.2C226.698 124.9 225.998 125.3 225.398 125.3Z" fill="white" stroke="#263238" stroke-width="1.2565" stroke-miterlimit="10" stroke-linecap="round" stroke-linejoin="round"/>
<path d="M223.597 123.3L219.397 122.7C218.697 122.6 218.297 122 218.297 121.3L218.697 118.1C218.797 117.4 219.397 117 220.097 117L224.297 117.6C224.997 117.7 225.397 118.3 225.397 119L224.997 122.2C224.897 122.9 224.297 123.4 223.597 123.3Z" fill="white" stroke="#263238" stroke-width="1.2565" stroke-miterlimit="10" stroke-linecap="round" stroke-linejoin="round"/>
<path d="M167.802 141C169.202 141 173.002 131.5 173.002 127.9C173.002 124.3 174.702 98.1 178.502 85.9C180.902 78.2 182.602 73.2 183.502 70.7C179.802 71.5 176.202 72.3 175.002 72.5C174.102 72.6 172.902 74.8 171.502 78.3C169.902 83.2 168.002 89.6 166.502 95.8C165.302 101.1 164.402 106.5 164.002 111.3C163.602 115.3 163.702 120.9 163.902 127C163.902 127.2 163.902 127.3 164.002 127.4C164.302 128.8 166.402 141 167.802 141Z" fill="white" stroke="#263238" stroke-width="1.2565" stroke-miterlimit="10" stroke-linecap="round" stroke-linejoin="round"/>
<path d="M172.301 117.8L164.101 116.9C163.401 116.8 162.901 116.2 163.001 115.5L163.701 108.9C163.801 108.2 164.401 107.7 165.101 107.8L173.301 108.7C174.001 108.8 174.501 109.4 174.401 110.1L173.701 116.7C173.601 117.4 173.001 117.8 172.301 117.8Z" fill="white" stroke="#263238" stroke-width="1.2565" stroke-miterlimit="10" stroke-linecap="round" stroke-linejoin="round"/>
<path d="M170.503 115.9L166.203 115.4C165.503 115.3 165.003 114.7 165.103 114L165.403 110.8C165.503 110.1 166.103 109.6 166.803 109.7L171.103 110.2C171.803 110.3 172.303 110.9 172.203 111.6L171.903 114.8C171.803 115.5 171.203 115.9 170.503 115.9Z" fill="white" stroke="#263238" stroke-width="1.2565" stroke-miterlimit="10" stroke-linecap="round" stroke-linejoin="round"/>
</g>
<defs>
<clipPath id="clip0_724_3790">
<rect width="419.2" height="363.8" fill="white"/>
</clipPath>
</defs>
</svg>
